/* XPM */
static char *east[] = {
/* columns rows colors chars-per-pixel */
"64 64 32 1 ",
"  c #BEBFBE",
". c #BFC0BE",
"X c #C5C5C5",
"o c #C8C7C7",
"O c #C6C8C7",
"+ c #C8C8C7",
"@ c #C5C7C8",
"# c #C8C7C8",
"$ c #C7C9C9",
"% c #CCCCCC",
"& c #D0CFCF",
"* c #CED0CF",
"= c #D0D0CF",
"- c #CDCFD0",
"; c #D0CFD0",
": c #CFD1D0",
"> c #D3D3D3",
", c #D8D7D7",
"< c #D6D8D7",
"1 c #D8D8D7",
"2 c #D6D7D8",
"3 c #D9D7D8",
"4 c #D7D8D9",
"5 c #DADBDB",
"6 c #DFE0DF",
"7 c #E1E1DF",
"8 c #DEDFE0",
"9 c #DFE1E0",
"0 c #E2E2E3",
"q c #E8E7E7",
"w c #E6E7E8",
"e c #E9E9E9",
/* pixels */
"35:>;&%>5,>%%>#$%>$XX%XOXXX$%>>>#%%$o#$XX>*%+X@--,93*%=$>%>&%>,4",
"OXXX;>;%o&%$&#>%%O>1>&%%>>**$@@%;>%->%%%X$$$>>%%$X$->%%>%%o&>%*%",
">5,%@X%>;>>::*%%%>X$->>,*%%*>>:%@X>>;>>>%%%$%,>>>3%%%>>>>>&%%%%$",
"$X$=,>%oX#$%%>>=*>>%$$%$$>$X X->3,>%43>84,51-$>>%%:-%$@X$>&$%X::",
"%,$X$%%$X%$X$XXX$%*:,>&%+X,53>-%%$$%X@;%%@$$>,%%>#$>%$>:*%*>>>O%",
">-1>>,004:>$%%%%>%%@$$>05*%*>$XX$=>33-$%5>:*%O$:%>:%:-->***>>41>",
"XX+$$X$%:->,,1>$$%>%X>X$**%>>>,>=$$X$>&%.%$@:>*%>>>>>%+%OOO%**%%",
"001>,>%&;>:%**>3*>15,%>>=%+%->3>3313>$$,,%>%%%:%$XX X**%>*%*%*17",
"$%$#%X%X%%;;>>%>>>>%>>%->48:>%$%$$$%>41>>>,>::**$>>>;%$%%*>%O$$%",
"X$>>>%,,;-;%XXOX$XXX%X>%@@@%%%:;>%%$+%*$%%%%%->:%$>:%>X:*%$%$$oX",
">>;>>>>>>;>5,>>$%&%&>>%:2-:>>>1:>:33>%%>*$%*%%:,0114>,>-%11>,%>%",
">%%&$$%$XX.X%;>,>3;%#%,:--%$@X$$%%%%*>**%,>>>-%$$%%%%%%>:%*>3,>>",
"#&>>>%%X%,>%#XX%>%%,3>%;:>>45>&%%,:%%**O%OO$$>>>$%X%:%-@$>>%%>%$",
">$XX%==&&%35>,%$%&>%%%$@%@@@%>&>>:*:**>>%*>,>%%1,3=%:---%+%%%X>%",
"$$%&$>4>:$$%=>>1>%$X%>>%>%%%%$%$%%%:*%X*>=%$=>>$%>542554,%$$$>$$",
">>,,>%>$,%=%%%$$$%3,;$->443>>,;=***%*65*>%%,%>%*$XX$.%%%:,>,%%*,",
"%,>>>>>>45,>>>:>>%%:>>%X%-:%%%>>***:*%*OO****O%>44:,>%**%*=>,>=>",
">$%%%:%$+=>>%%$%*%%@X:*>%-%@%$@$:*::***>**OX**%*%%%:1>%%=*>>>>,%",
"%%>5>>35>%:>:31*:%44>*>>>>,4>,>-*4>>:>***562>1>2:>:%%%>*%$%*$XO%",
">>%%-$@%%>=%>*>555>2>1*%XX-:35>>2%%**:52:**%**:*%*%>*%**=$%+,1$,",
"%%>>%>%3*>>%%%%%**%XOX:403::%%:%%**%%O$+%%%*%*@:::*%%22*>>>>%::%",
"%$X$>-$X@XX**>1>*@:4*>%%%->:%%$>***:>>*><<*****%%*O>*%%*1>$$:%$*",
"%>,:%%,:***:*%$$:>%:>::::%O::>%$X%O******O*2:>2:*,:%*%%%O%>%O**%",
">&*$>>::44*%%%>>::%%:::$X*:**%>,%O>**>%*%**%*O%2*%:>*%%*,*>54:%:",
"%oo=X$##X#%->>$%*O$O%XX>:%XX$::304>*>%,%>:1>261*1>*:14>%$**$>,>%",
"&5,%>;,,>>%$$%%>**:%*OXO%*><%%%X%>=*=>%%$%$*OXO%*>2:**>:,>%>%%$3",
"&%>,>>:--;>,:-@$2>>>1**>%%>14:,4*%%>>>5452>>>55:%X%:::::**%>:>1%",
">$$X%@$>%.X%>484:25460<501=$>>%>>*>%$$%%XX$$*%O:>1:$O*+>%>,>>%>%",
":>,,>%%$>05>-@%@%OX%*=OO%>55>>:$%>*>4:%:344:$4-%%%,>>%%$$XXX%-%2",
"XXo$;05>-%%$X$%>>5>*%=6<>-%%%>:,*%%*:>>*>%%,>>>4:*594:>4;>>>2%%X",
"3>X>%$$%-433:::%%O%>*XX*$$4>%:>:12>:**$>>,,-%#%%4%%%>4%435,%$:4,",
"305,,,,-%%%49>5455%%*1>>>%%%:%%X..@***1::%:50w84>>>>:*,**:%,,:>3",
"$%%*%::5>>>%$%@$O%46<-:>1>,%:%*,2:>%*%*>*%XXX$$$%$$@@**:2>>>4:*%",
"o$:$>>:%%::-:>>%*O$%%%:%*%%,,:%%>***%>*%%>:%@$%>>>,35:::%OOOO%OO",
">>>>%%:::>>44>1>6<:%%>*%%%:%:50>6124>**5511>3>>>>>:*%%:>6:>4*2>>",
"*$$:4::>%%.X%%%$$*4::-*2>,>=%$%**%%%$1>*%*41>>>%%%%$:%O..*>>:>>*",
"&34%%*>>>552:-:4>*%>%%%%%$%1:>%OO2***X$,>>>:%$:>>>%$%>34**.*>:*2",
">$%>%$OOXX**>:>:*::*5:**>4:**5,4*::*>>>%*%:@>*%$%,6>,>15<6<*%:>*",
"=%%>>%:>:**%:%-%:>:$O1***%:>*%*452<6<2>%*%*>>>45,%>:*$OO**>11>**",
",>>;>,535111>>>>::495>:**2:>>*OO*OX***212>%%%1>:>>>,>,%>%%XO%O*1",
"%%-;>$$%*%%%>>->*:%*%O*:=>%**554>2*%::%>,433>%:4>*>::65>*5>:21:*",
"%o@>%,&%$X%$X*>::2**>1%%OO:%%%%%*>>=$->:--:>>:%O@**%%*>41>=*%O*%",
"35,%>:>>33>,,::35>1<*%>664>4,1>>:%>>3;$%:::X%*:992551*$*>>5421:6",
"%%>3%%XX&,55>>>%%%$>33>**%>>>%**>1**%>>$:%59:1*%%%O%O26>*%%*>>*%",
">%%#,8q5:%%$>%%>*%*O%$$%***%%2::*%>,1,4>1>%%:%41*<421:***%%OO%>=",
">>%>X$--,%-%%>>%=>2::452**%>*%*%%>*=%:2*$$:*$:$O***O%XX%%>,:*%+3",
">5533:%%$,>,%OX=O>*%:**%:5:>>>>3*$%$%%$>5>%>>:34=*>>>4,>14965011",
"##$%-%@,>%:%>,%%>*>2****%**X>>*%1*>*%>,%:9,%%:%%*>*:>3>>>%%%%%%$",
"%#$X#>>;#X%>>004>:*>>>:14459>>1>%>41*%O**%*2>>o>%*%*%%$$%3>%%%$=",
";%;%#%%>35>%$X-4>*,*%%O%%%$O%O>>4,%>3>5>::*%O53>1*21:,1>:%O:>>>&",
"335,>>%;35545,:%:>436565>1401*OO%,=%>****>%41%%311:>>%%:*>>%>4,1",
"545q580>%-2-%>>:>%Xo%@..X%%X*>5>$XX*%:%>::4*:%>$%OOO>%++,>55>::>",
"#;;;XX@%1>%>%@>:%>,%%>111**1%O*=>>&=%O$XXOO>>,,>11>*%5w,$XX%O%$$",
">%%%53,;+$%%4>%%%%>>>:>:*,>>5>*>w8,%5>>>,>,%%XX%X5051*$%%-:%:>4*",
"%>-@#%X$5>-,>;33>&*%%,*<*%O+%*>%%%1,>555>%*,59%%2%O%$*7384>>:%X>",
">>-4>>>;%=%$#XX.%>%>>*:*>6eq622>>>>>>*%**1*>45w3>5511>>>4455455>",
",3,,>,1>,%:*%1>>>%:**<*%%@%%%$:O$$$>>>,>>>>%$$%$*%%%>%%%%$XX$X%>",
"*%%$=*>>=5,>%>,*:%2:**%:$@X%,>>,305>>=+%$X%+%%>&:45>>,1>::,,>%%:",
"%>%>&$%$*%>0916445:%>655334>:>3>>%$%>30>>,>51,>>%%%%$**>335553>:",
",%>>:3>,>=$o%%%$%%*5***:34>>*%$%%$>%X X%>,>>>%%>31*1>*%O@$$$@$>,",
"&,&%%$%X$,*>%O%::*%X$>>*:>X%>>,&%%$>31*>X%>>>33%$$>&*,35>>>=1*%:",
"%$>%%=,5>%>343*>:%*:%%%%$$>$$X%55,5>35,7,&%=>$%,>>%$XXX$%%%%*>*$",
">$X>%>%%>=%X%21>553>=$%X>>>>35>%>&%XXX%*>>>>>,%%&>&&1>%>&&$>$%>>",
",w5>>%>*:>>*O@%XO%%*11>>@%%,>-3>,&,>%>$XX%%X$>>,-$,535,,>3>,,:%3"
};
