/* XPM */
static char *ff8[] = {
/* columns rows colors chars-per-pixel */
"64 64 256 2 ",
"   c #010101",
".  c #090605",
"X  c #0C0B0B",
"o  c #0A0A04",
"O  c #130D0B",
"+  c #1C0E0A",
"@  c #140A06",
"#  c #19120D",
"$  c #0D0F11",
"%  c #0E1214",
"&  c #131313",
"*  c #1B1513",
"=  c #1D1916",
"-  c #151619",
";  c #161A1D",
":  c #1B1B1B",
">  c #191718",
",  c #100F10",
"<  c #23120D",
"1  c #2B140E",
"2  c #2B1711",
"3  c #2C1A13",
"4  c #231D1B",
"5  c #261B16",
"6  c #331B14",
"7  c #361E17",
"8  c #2E110A",
"9  c #39360E",
"0  c #27221D",
"q  c #3C221A",
"w  c #352218",
"e  c #2B290B",
"r  c #191E22",
"t  c #161C21",
"y  c #211F20",
"u  c #1B2125",
"i  c #1D242B",
"p  c #1F282F",
"a  c #1F2830",
"s  c #232323",
"d  c #2A2523",
"f  c #2C2B2B",
"g  c #26272A",
"h  c #332C2B",
"j  c #372A25",
"k  c #3A322B",
"l  c #212A32",
"z  c #2B2D34",
"x  c #2D3238",
"c  c #343335",
"v  c #3B3533",
"b  c #353539",
"n  c #3B3A3C",
"m  c #39363B",
"M  c #322F34",
"N  c #45190E",
"B  c #7B1816",
"V  c #43251C",
"C  c #482619",
"Z  c #4E2F14",
"A  c #702F17",
"S  c #452B23",
"D  c #4B2C23",
"F  c #402F2A",
"G  c #522F25",
"H  c #4C332B",
"J  c #46362C",
"K  c #56352B",
"L  c #433C3B",
"P  c #483A34",
"I  c #583C33",
"U  c #623D32",
"Y  c #703A26",
"T  c #544F19",
"R  c #4A423D",
"E  c #584539",
"W  c #5C5534",
"Q  c #52452A",
"!  c #67463A",
"~  c #75493A",
"^  c #68573B",
"/  c #79543A",
"(  c #615720",
")  c #726936",
"_  c #78721B",
"`  c #393943",
"'  c #2C3040",
"]  c #484646",
"[  c #554B46",
"{  c #59514C",
"}  c #5A5756",
"|  c #484B54",
" . c #664C41",
".. c #734E43",
"X. c #6A5747",
"o. c #7B5245",
"O. c #7C594D",
"+. c #765548",
"@. c #645C58",
"#. c #745C50",
"$. c #776746",
"%. c #7B7345",
"&. c #69625B",
"*. c #796755",
"=. c #766D4D",
"-. c #666363",
";. c #6B6867",
":. c #746D69",
">. c #7A726B",
",. c #797674",
"<. c #706F70",
"1. c #5F5D60",
"2. c #941716",
"3. c #AB1B1A",
"4. c #8D3414",
"5. c #8F332B",
"6. c #B63431",
"7. c #A5271E",
"8. c #CC392F",
"9. c #D63A1D",
"0. c #AC4C19",
"q. c #97462A",
"w. c #865637",
"e. c #904D32",
"r. c #A55529",
"t. c #8B783B",
"y. c #916A3C",
"u. c #AF7032",
"i. c #A85513",
"p. c #DA502D",
"a. c #CB6E2F",
"s. c #E57731",
"d. c #D86F1A",
"f. c #845849",
"g. c #865E51",
"h. c #9E5640",
"j. c #AF514D",
"k. c #876846",
"l. c #887843",
"z. c #987847",
"x. c #886457",
"c. c #95685A",
"v. c #877958",
"b. c #97694D",
"n. c #AC6B4F",
"m. c #976E61",
"M. c #9D7264",
"N. c #987567",
"B. c #837D79",
"V. c #897568",
"C. c #AC7C6C",
"Z. c #A47769",
"A. c #A97F71",
"S. c #B47C72",
"D. c #D0724E",
"F. c #E3704B",
"G. c #D17A72",
"H. c #D26A62",
"J. c #948C15",
"K. c #968637",
"L. c #B28A3D",
"P. c #BEB320",
"I. c #D48830",
"U. c #E68D2C",
"Y. c #E9AF2A",
"T. c #E4971B",
"R. c #E7D00F",
"E. c #D8CD26",
"W. c #968747",
"Q. c #888557",
"!. c #958C4E",
"~. c #A89749",
"^. c #B69A48",
"/. c #AA904F",
"(. c #B8A956",
"). c #B1AA51",
"_. c #8B8964",
"`. c #99966A",
"'. c #88827B",
"]. c #988778",
"[. c #968E6E",
"{. c #AC8374",
"}. c #A68675",
"|. c #B58776",
" X c #BC937D",
".X c #AE8A6C",
"XX c #B2AB6D",
"oX c #CD894E",
"OX c #E7954E",
"+X c #CEB151",
"@X c #E8A94E",
"#X c #C8947C",
"$X c #C89075",
"%X c #C7BB66",
"&X c #CFB56C",
"*X c #ECB672",
"=X c #E58C7E",
"-X c #E9C851",
";X c #D5CA77",
":X c #D5CE72",
">X c #EAD073",
",X c #EAE672",
"<X c #DACC50",
"1X c #878482",
"2X c #978C85",
"3X c #9A9488",
"4X c #989695",
"5X c #B48F82",
"6X c #A79989",
"7X c #BA9787",
"8X c #A29B96",
"9X c #B4988F",
"0X c #A9A488",
"qX c #B6A78A",
"wX c #ABA596",
"eX c #B7A996",
"rX c #BDB592",
"tX c #A9A7A5",
"yX c #B9B2A9",
"uX c #C59887",
"iX c #D19388",
"pX c #D4A68D",
"aX c #C9A799",
"sX c #D5A795",
"dX c #DBB79A",
"fX c #CDB087",
"gX c #EAA892",
"hX c #F5B79C",
"jX c #E4B492",
"kX c #C7B8AA",
"lX c #D5B8A5",
"zX c #CDBBB5",
"xX c #E4BAA9",
"cX c #F9BBA3",
"vX c #E6B9B5",
"bX c #D7CC90",
"nX c #E7DA8B",
"mX c #EBE78B",
"MX c #D0C8B3",
"NX c #F7CBB4",
"BX c #FAD7BA",
"VX c #EECEAC",
"CX c #EDE8B2",
"ZX c #D9D4C5",
"AX c #D0CEC9",
"SX c #EAD4CC",
"DX c #E6E3C5",
"FX c #FCE6C6",
"GX c #E9E2D9",
"HX c #F8EAD5",
"JX c #FCF6D9",
"KX c #ECE9E4",
"LX c #F6EAE4",
"PX c #FBF9E6",
"IX c #FEFEFC",
"UX c #FCFAF4",
/* pixels */
"& & & & & & , & & # & - - ; r u r > O .   . 2 S G O.A.x.S + < 7 D K +.c.Z. .M.S.A.N.g.5 ; t t t - & & - & & & & & & & , & & , & ",
"& & & , & & & & & , & & - r u u r * .   . 6 G D V m.M.G O O < O < D +.A.5X{. .N.7XS.+.I 2 ; r r t t - - & & - & & & & & & & & & ",
"& , & , & , , & & & & & - r i i d O . . 6 D S ! U ..c.S O 2 7 S D F U A.uX9XS.I c.{.M.E q 2 t r r r t > & - - & & & & & & & , & ",
"& & & & & & & & & & & & ; r i i 4 . . 6 S I g.g.o.K G 6 2 7 q G U S.S.x.5XuX5Xg.S f.N.O.S 2 2 r u r r t > > & & & & & , & , & & ",
"& , & & , & & & & & & - ; u i u O . 2 j  .x.M.C.g.K 2 2 7 * < V ..iXaXZ.N.5XuXN.I V ..O.I 7 < 0 r r i r t - - - & & & & , , & & ",
"& & & , & & & & & - & - ; u i & . < 6 I x.S.S.c.G + < D H . < G Z.sXuXx.o.S.5X5XO.j 7 U  .S 2 7 r i i r t - - - > & & , & & , & ",
", & , & & & & & - & - ; t u i # O 2 P #.5X|.c.~ 2 < 6 G S 5 2 ! iXsXuXg.U f.Z.S.N.I 1 7 K D 7 6 j r i r r > > - - & & & , & & & ",
"& & & & & , & & - : - ; t u u X < F  .|.{.C.c.G @ < q K U I U S uXuXsXA...U g.M.C.x.q < V D 7 7 j r r r r t t - > & & & & & , & ",
"& & , & & & & & - ; ; r r u - + j  .A.S.5XS...D @ 1 C ! o.o.f.K o.uXsXsXc...U g.g.g.! < < 7 D H P s u r r r ; ; - & & & , & & , ",
", & & & & & - - ; ; ; t r u O j  .m.Z.5XsXm.g.7 + 6 C c.M.c.M.o.o.C.sXSX#Xf.....o...I V O 2 K H K f u r r r ; - - & & & & & & & ",
"& & & & & & & ; ; t r r u u j ! +.#.m.uX5XC.g.H 3 7 f.hXcXcXpX#XuXA.|.NXxXc.O...U K G 7 < + S U q 4 u u u r ; ; & & & & & & & & ",
"& & , & - & - - : t t u g P P J F P M.sX5XuXc...K H C.cXNXFXJXJXIXaXZ.VXlXS.c.o...G C V 6 2 5 S 3 * u u r r ; - - & & & , & & , ",
", & & & & ; - ; r ; u s g u 0 q j ! S.uXlXm.|.m.#.+.iXcXBXJXJXPXIXzXm.sXsXM.c.c.o.U N 6 V 7 2 2 + < r u u u r ; - - & & & & , & ",
"& & & , & & ; r u u u u u u k j d  .N.9XaXc.5Xc.m.S.gXcXBXJXPXUXIXGXg.lXiXg.O.M.C.o.U 7 8 6 V 2 O @ ; i u u r r ; > & & & & & & ",
"& & & & & ; ; r r u u u i u k d 7 ! g.9XN.m.S.x.C.$XgXcXBXBXPXUXIXKXg.zXiXg.x.O.iX5Xf.K V 8 1 6 6 < > i u u u u r - - & & & , & ",
"& , & & & & ; ; r r u u i i P 5 7 K O.m...M.A.g.C.#XgXcXFXFXHXUXIXIXg.ZXuXg.9Xx.aX9X7XU D V 7 6 < < 3 l i i i i u r > & & , & & ",
"# , & & & & ; t t r u i p g P * 6 q U ! U Z.M.g.S.$XgXcXFXJXNXPXIXIX..UXsXZ.ZX{.uX5XN.m.D q D K 7 < 4 p p i i i r r ; - & & & & ",
", & & & & & - ; r i i p p x F O 2 6 K D U M.x.g.C.iXhXNXFXPXPXVXIXIXV.IXaX|.KXuXkXaX*.m.G q q D S < r p p p i i i r ; & & & & , ",
"& & & & & - ; t r r i p p b k + 1 2 D 7 U g. .+.Z.gXcXBXJXUXIXBXHXUX5XIXkXuXGXaXaXlX$.U x.S 6 q 6 2 u l a a p i i r t - & & & , ",
"& & & & > - ; ; r r i p a b j + < 1 q 6 U ..H E ..f.S.VXJXIXIXIXcXGXzXIXMX#XkX|..XzX}.K N.D 1 O.*.5 i i p a a p i r t - & & & & ",
"& & & - & - ; : r r i p l b j + < 1 6 6 K I H I m.gXc.! g.zXUXIXHXdXKXUXaX.Xc.pX#XJXSXG [.U 8 7XyXy i l l p a a p u u ; - & & & ",
"5 * * & - - ; t r i i p l b h + + < 8 6 G H H I I v M L K ! Z.HXIXpXLX5X|.N.] { C.6XPXx.O.c.6 7XkXr r l l p a l a p u r - - & X ",
"w < * - - : : r r i i i l M h + @ + 1 6 D H I I V.9XaXkX9X{.o.sXUXSXNXPXN.Z.MXkXC.eXUXkX~ }.q aX8Xr l l l a a l l a i r - & & - ",
"Z w e = 0 : : s s s r i l z h O . + < 7 V I m.C.#XuXVXFXSX$Xc.g.HXLXNXJXHX{.LXLX5XIXIXHXI }.V eX<.i l l l p l l l a i u g f M c ",
"4.Z 6 3 5 0 d d d s s g g z h 5 . < < 7 V U Z.uXgXcXNXNXgXpXb.f.VXUXJXHXPX9XIXIXaXUXUXJX! #.< E p a l l l a l M b b n b b b M M ",
"i.Z w w 7 q V j j j h f h v j 4 + 8 8 N D U g.G.hXBXFXFXFXiXg...xXPXPXIXIXSXIXIXMXLXGX6XF w + k p l x b b n ` n b ` n ` ] } } } ",
"N A N w q A 4.y.Y G G H H K H S 8 N N N C U f.M.gXJXPXJXlXc.O. .dXJXJXIXIXLXKXAX2X:.@.X.k j d v m n ` n ` n n ] } ;.,.,.<.-.1.} ",
"6 e 3 0 0 w C w.I.u.e.5.r.e.e.r.4.0.4.B G A ~ b.C.jXVXuXc.c.! P dXHXbXkX6XV.*.#. .[ R L n n n L n n ] @.>.].2X2X2X1XB.,.<.;.1.1.",
"< < = = = 4 0 w G e.e.e.5.u.I.OXR.R.R.Y.0.Y ~ b.b.n.b.o.U D < 7 +.*. ...f.f.e.~ I L L L L ] #.V.].9XeXqXqX6X2X2X1X'.B.,.<.;.-.1.",
", # - - - ; : r f F J K 5.r.n.j.d.Y.T.Y.OXa.e.n.n.b.Y C C C < j R L [ R ! a.a.u.e.k.x.}.uXjXjXpXfXfXuXqX6X6X2X2X'.B.,.<.<.;.;.1.",
", & & - - ; ; u s f F F P K ~ h.U.d.i.U.U.OXD.D.D.q.4.2.A Z H R L L R ..n.oX=X>XBXJXVXnXjX*X>X>X>X>X>XpX9X6X2X2XB.B.,.:.;.;.-.1.",
", , % - - - ; u i l f z M ` ` I 4.i.i.4.p.T.U.oX5.4.0.0.p.a.e.!  .*.f.n.D.*X*X>X>XCXPXJXCX,XmXmX,XmX,XfX7X5X2XA.B.V.V.:.;.-.@.} ",
"% % % % % - t t i i i l x ' ` L S Z A 4.i.T.i.u.a.a.w.k..X*XCXVXbXr.5.m.B j.=XOX-X,XmXFXJXmXmXmXmX,X,X:X#XXX].].[.V.V.:.&.&.} { ",
"% % % % - - t t t i i z | ' ' ` j w 8 K A a.@X&X&XMXMXVXnXCXDXKXGXn.G.S.5.B oX@X-X<X>XCXDXCXCXCXnX:X:XfX$X.X.X/..X/.m.*.&.@.@.{ ",
"$ $ % % % % - t p ` b z | ,.b v F H E x.b.oX+XbXMXbXbXDXDXDXCXVXiXS.vX5.5.uXaX:X,X,XnXmXmXCXbXbX<X<X:X%XoX(.(.)././.z.x.$.#.X.{ ",
"$ $ % % % % - - r ` ,.<.] ] Q E X.f.b.b.z.n.oXoX&X:XbX:X:XbXD.6.H.6.vXiXIXIXIXjX<X<X:XnXbXbXbX;X:X+X+X%X+X(.L.~./.W.K.z.$.$.X.^ ",
"X $ $ $ $ % t b z b n L P E ! ~ w.w.f.y.z.u.L.L.+X+X<X+XOXp.9.G.SX6.j.vXGXSXaXuX+X+X:XbX%X+X(.:X%X%X%XXX).XX~.W.t.W.W.W.y.$.^ ^ ",
"r r r $ > y d g g h h v P I ~ w.y./.XX0XwXyXXX).~./.L.a.p.F.vXHXSXvXSXG.6.2.B B r.<X+X%X;X:XrXqX0X0XXXtXXX).!.!.K.l.) $.X.^ E R ",
"m m g y > : y y y d f j F I ~ w.k.z._.3X4X`.).~.K.L.L.a.p.hXNXNXSXvXiX6.2.2.2.B $X).(.).).XX).XXXX0X`.0X`.`._._.l.l.$.^ ^ R P c ",
"& , , d > 4 t 4 y d f j k J I I ! w.w.l.W.!.W.W.~.L.).I.OXOXF.9.9.=X8.6.3.2.2.2..X).L.~.).~.~.~.`.`.[.]._.Q.Q.%.=.#.^ Q P v h f ",
"O , , d 5 : 4 4 0 d d j j F H K E ~ ~ o.$.k.k.y.l.W.u.T.d.s.s.F.9.8.G.8.8.3.2.e.~.L.K.~.K.W.!.!.Q.Q._.Q.=.l.$.X.E E R v h f g d ",
"O & & d * = 4 4 0 5 7 d j j j k J H I I ! ..X./ ^ / / L.T.T.p.s.F.p.F.G.8.3.3.y.t.t.K.W.!.W.t.%.) %.%.%.$.X.X.W R n c h g d s r ",
"4 y d h 4 * * 5 4 4 4 0 7 k -.{ [ v [ { [ X.#.X.V.! ^ M.@XT.oXd.D.D.F.H.$Xr.W.t.Q.`.) `.`.%.`._.`.`.Q.) ) W W R P k f d s r : : ",
"y : = & 4 * & & * * = = > M tX2XB.] 1XtX-.>.4XX.wXQ ! eX*X@XBX*XVXvXF.vXKX) MX) rXMX=.kX0X) yX0XeXeXwXW W W Q Q k f d d 0 0 : : ",
". X X X # & , , , X X , , z tX;.1X| 1XyX@.B.8X[ wXP Q wX.XY.GX@XMXZXz.].MX) AXQ.0XyX) yX3XW wX0X0XwX4XQ Q J k h h d 0 0 0 s u s ",
". . . . , . . X X X X # & z KXL 1X| 1XAX@.1X8X[ 6Xk Q rXMXR.GX+XdXSX%.) 0XT AX%.$.eXE yX>.I 2XtX4XwX4Xk k h d d 0 d g g s s d r ",
". . . . , . . X X & : : & h tXb 1X| 1XzX@.1X8XR 4XR Q rXXXR.AX:XMXGXy.W 3XT AX>.Q MXR wXE k &.yX4X2X3Xd 0 g f f f f g 0 0 r > > ",
". . . . O X , , , $ . . $ f 4X& B.` B.tX} 8XtXL 4X:.T 0X<XR.GX:XbXMXoXQ 3X9 AXB.4XyX@.4XP j { yX1X4X4Xf c f f g d u r : : = - - ",
"X X X X $ X     X X X $ $ f 4X, 1XL B.1X} 1XtXn AX'.( qX).E.bX;XaXbXt.R ].k tX'.,.AXR 4X{ h c tX4X4X4Xa d g s r 0 : : - - & & & ",
"X X X X . X X X X X X X & } ;.] ;.} -.-.} <.,.} ,.&.=.`.!.XX;XXX[.>.Q.&.:.&.,.:.} '.{ ,.<.-.} <.,.B.<.b u : : : = - & & & , , X ",
".   .   .   . X X X X X O ; ; : : : 4 r : | : 0 0 0 f _ 9 Q J.E.P.Q Q d 0 d s f f f c n f f f f f f l y - = - & & & , $ X % o o ",
"  .   . . .   .   X   X . X . . . X . X . tX, h f r } K.r W T ).P.v.9 R s b R - { ; | ] - & - - & - - & & & & % $ X X o o       ",
".   . .                       . . .   X X 4X. { ] s 1X!.g ;.X B.R.Q.J._.b ] n , 4X$ ;.n % X & % X X $ X X X X . .               ",
"                                          1X  ] h s ;.!.=.] o ;.J.K.T } u n & o ;.o } z . . . . . . . . .                       ",
"                                          r   X X X ; e _ - o - o _ 9 T 9 e o   -   % X                                         ",
"                                                        _ o     o o o e 9 o                                                     ",
"                                                        e 9             # e                                                     ",
"                                                          T             o   o                                                   ",
"                                                          # 9                                                                   ",
"                                                            9 @                                                                 ",
"                                                              9                                                                 ",
"                                                              o e                                                               ",
"                                                                o o                                                             ",
"                                                                                                                                "
};
