/* XPM */
static char *goku[] = {
/* columns rows colors chars-per-pixel */
"64 64 235 2 ",
"   c #020101",
".  c #050509",
"X  c #0D0C0C",
"o  c #17130F",
"O  c #090711",
"+  c #131313",
"@  c #16161C",
"#  c #2A1A15",
"$  c #28201F",
"%  c #31241C",
"&  c #02042B",
"*  c #0E0C35",
"=  c #30162D",
"-  c #232324",
";  c #2A2A2C",
":  c #333334",
">  c #531908",
",  c #691904",
"<  c #751C03",
"1  c #791E03",
"2  c #641C11",
"3  c #4A3210",
"4  c #762607",
"5  c #7D2104",
"6  c #7B3110",
"7  c #491836",
"8  c #711929",
"9  c #4B2F2F",
"0  c #4B2538",
"q  c #662829",
"w  c #6D322E",
"e  c #692C32",
"r  c #5E4320",
"t  c #56493F",
"y  c #1C1649",
"u  c #0B1151",
"i  c #08135B",
"p  c #291A4B",
"a  c #1F204E",
"s  c #332D4F",
"d  c #0B1A6A",
"f  c #151D65",
"g  c #0C1D73",
"h  c #2D1E62",
"j  c #192868",
"k  c #192876",
"l  c #192B78",
"z  c #28306F",
"x  c #37356D",
"c  c #253479",
"v  c #463554",
"b  c #713A4B",
"n  c #4B3A65",
"m  c #3F436A",
"M  c #46484A",
"N  c #515053",
"B  c #6C5552",
"V  c #50526E",
"C  c #655A68",
"Z  c #5C6062",
"A  c #6C6D6D",
"S  c #930100",
"D  c #A40A01",
"F  c #BC0606",
"G  c #832305",
"H  c #8C2705",
"J  c #8E2A07",
"K  c #842709",
"L  c #932B06",
"P  c #9A2E07",
"I  c #952D09",
"U  c #9D320B",
"Y  c #8C3116",
"T  c #953617",
"R  c #A23209",
"E  c #A5350C",
"W  c #AA350B",
"Q  c #B33A0D",
"!  c #BA3D0F",
"~  c #AA3D16",
"^  c #B63E13",
"/  c #963C2B",
"(  c #C81010",
")  c #D21C1B",
"_  c #D42424",
"`  c #C03937",
"'  c #DC3534",
"]  c #92490A",
"[  c #A2400A",
"{  c #BC4113",
"}  c #B84217",
"|  c #B17B03",
" . c #994535",
".. c #895332",
"X. c #A84624",
"o. c #B84929",
"O. c #B44F34",
"+. c #A55236",
"@. c #A36B2C",
"#. c #C34313",
"$. c #CA4615",
"%. c #D24916",
"&. c #DA4C17",
"*. c #D44C19",
"=. c #DB4E19",
"-. c #CA5812",
";. c #DC501B",
":. c #E4521B",
">. c #EC561D",
",. c #F1571E",
"<. c #F2581F",
"1. c #CF4336",
"2. c #E75922",
"3. c #F75B20",
"4. c #F85B20",
"5. c #A6594A",
"6. c #8F6A54",
"7. c #B26A54",
"8. c #876B63",
"9. c #926C66",
"0. c #927873",
"q. c #AE7464",
"w. c #D74C4B",
"e. c #CE7053",
"r. c #DB795E",
"t. c #B48400",
"y. c #BA8B04",
"u. c #BD9306",
"i. c #B58C19",
"p. c #BC9423",
"a. c #B69038",
"s. c #D3830C",
"d. c #C29401",
"f. c #C59A01",
"g. c #C89D01",
"h. c #CCA202",
"j. c #C4A10C",
"k. c #D4AB02",
"l. c #D4AA04",
"z. c #DBB401",
"x. c #DDB807",
"c. c #DBB50B",
"v. c #DEBA0B",
"b. c #DFBC11",
"n. c #E0BE15",
"m. c #E0BD19",
"M. c #CCA626",
"N. c #D7B828",
"B. c #D5B832",
"V. c #E1C017",
"C. c #E2C21B",
"Z. c #E4C621",
"A. c #E6C827",
"S. c #E6C929",
"D. c #E8CC2E",
"F. c #E9CF33",
"G. c #EACD3A",
"H. c #EAD136",
"J. c #ECD43C",
"K. c #9A834F",
"L. c #AC924D",
"P. c #B58A7A",
"I. c #ABA868",
"U. c #C79E4A",
"Y. c #E29442",
"T. c #CDB251",
"R. c #C3846D",
"E. c #C88971",
"W. c #D28973",
"Q. c #D89279",
"!. c #DDC652",
"~. c #E2CB49",
"^. c #EED741",
"/. c #EFD945",
"(. c #EDD64A",
"). c #F1DD4C",
"_. c #E1C859",
"`. c #E9D559",
"'. c #F2DE52",
"]. c #F3DF5A",
"[. c #F3E154",
"{. c #F5E45B",
"}. c #C9C46D",
"|. c #E7D765",
" X c #EAD965",
".X c #F6E664",
"XX c #F7E861",
"oX c #F7EB6E",
"OX c #FAED6B",
"+X c #F5EA73",
"@X c #FAED73",
"#X c #FDF274",
"$X c #FFF67A",
"%X c #102886",
"&X c #11338E",
"*X c #133995",
"=X c #13409D",
"-X c #30408D",
";X c #314296",
":X c #154BA8",
">X c #1651AE",
",X c #3D51B2",
"<X c #4F6090",
"1X c #6F6A90",
"2X c #7175A9",
"3X c #947F92",
"4X c #7C8385",
"5X c #B89686",
"6X c #BD938E",
"7X c #AA9698",
"8X c #ACA5B6",
"9X c #CC9C89",
"0X c #D79A84",
"qX c #D3A894",
"wX c #D8B29F",
"eX c #E5A78F",
"rX c #EAB29C",
"tX c #D9B6A7",
"yX c #CEBBB3",
"uX c #E6B9A4",
"iX c #D5C3B8",
"pX c #F4C0A9",
"aX c #E9C9B6",
"sX c #EDCAB6",
"dX c #F7CDB8",
"fX c #F7D1BD",
"gX c #DAD1CC",
"hX c #E9D6CA",
"jX c #FDD6C0",
"kX c #F7D9C8",
"lX c #FEE0CE",
"zX c #FAE5D8",
"xX c #FCF3EC",
"cX c #FBFBFB",
"vX c None",
/* pixels */
"vXvXvXvXvXvXvXvXvXvXvXvXvXvXvXvXvXvXvXvXvXvXvXvXvXvXvXvXvXvXvXvXvX  vXvXvXvXvXvXvXvXvXvXvXvXvXvXvXvXvXvXvXvXvXvXvXvXvXvXvXvXvXvX",
"vXvXvXvXvXvXvXvXvXvXvXvXvXvXvXvXvXvXvXvXvXvXvXvXvXvXvXvXvXvXvXvX    vXvXvXvXvXvXvXvXvXvXvXvXvXvXvXvXvXvXvXvXvXvXvXvXvXvXvXvXvXvX",
"vXvXvXvXvXvXvXvXvXvXvXvXvXvXvXvXvXvXvXvXvXvXvXvXvXvXvXvXvXvXvX+ +   vXvX  vXvXvXvXvXvXvXvXvXvXvXvXvXvXvXvXvXvXvXvXvXvXvXvXvXvXvX",
"vXvXvXvXvXvXvXvXvXvXvXvXvXvXvXvXvXvXvXvXvXvXvXvXvXvXvXvXvXvX+ Z       vX  + vX  vXvXvXvXvXvXvXvXvXvXvXvXvXvXvXvXvXvXvXvXvXvXvXvX",
"vXvXvXvXvXvXvXvXvXvXvXvXvXvXvXvXvXvXvXvXvXvXvXvXvXvXvXvXvXvXM M           Z   X   vXvXvXvXvXvXvXvXvXvXvXvXvXvXvXvXvXvXvXvXvXvXvX",
"vXvXvXvXvXvXvXvXvXvXvXvXvXvXvXvXvXvXvXvXvXvXvXvXvXvXvXvXvX. N ;           M X M +   vXvXvXvXvXvXvXvXvXvXvXvXvXvXvXvXvXvXvXvXvXvX",
"vXvXvXvXvXvXvXvXvXvXvXvXvXvXvXvXvXvXvXvXvXvXvXvXvXvXvX  vXX M +           X @ 4X-   vXvXvXvXvXvXvXvXvXvXvXvXvXvXvXvXvXvXvXvXvXvX",
"vXvXvXvXvXvXvXvXvXvXvXvXvXvXvXvXvXvXvXvXvXvXvXvXvXvX    vXX +   -         . : 4X-     vXvXvXvXvXvXvXvXvXvXvXvXvXvXvXvXvXvXvXvXvX",
"vXvXvXvXvXvXvXvXvXvXvXvXvXvXvXvXvXvXvXvXvXvXvXvXvXvX+ +       X Z         X M N X     .   vXvXvXvXvXvXvXvXvXvXvXvXvXvXvXvXvXvXvX",
"vXvXvXvXvXvXvXvXvXvXvXvXvXvXvXvXvXvXvXvXvXvXvXvXvXvX@ M       + A .         : ;     X :   vXvXvXvXvXvXvXvXvXvXvXvXvXvXvXvXvXvXvX",
"vXvXvXvXvXvXvXvXvXvXvXvXvXvXvXvXvXvXvXvXvXvXvXvXvXvX. A -     + A ; - +     X       +   vXvXvXvXvXvXvXvXvXvXvXvXvXvXvXvXvXvXvXvX",
"vXvXvXvXvXvXvXvXvXvX_ vXvXvXvXvXvXvXvXvXvXvXvXvXvXvXvX: :   X 7X0.; % @                 vXvXvXvXvXvXvXvXvXvXvXvXvXvXvXvXvXvXvXvX",
"vXvXvXvXvXvXvXvXvXvXvX( ' vXvXvXvXvXvXvXvXvXvXvXvXvX  . o $ 9 P.9 6.pX9.t X 8.%       vX  vXvXvXvXvXvXvXvXvXvXvXvXvXvXvXvXvXvXvX",
"vXvXvXvXvXvXvXvXvXvXvXvXvXF ' vXvXvXvXvXvXvXvXvXvXvXvX  M 6XqXjXaX8.t t B 8.rXb           vXvXvXvXvXvXvXvXvXvXvXvXvXvXvXvXvXvXvX",
"vXvXvXvXvXvXvXvXvXvXvXvXvXvXvXF ' vXvXvXvXvXvXvXvXvXvXvXA q.jXhXcXaXdXdXtXrX9         vXvXvXvXvXvXvXvXvXvXvXvXvXvXvXvXvXvXvXvXvX",
"vXvXvXvXvXvXvXvXvXvXvXvXvXvXvXvXvXF ' vXvXvXvXvXvXvX$.U ..5XlXgXiXyXsXiXcXP.B 3     vXvXvXvXvXvXvXvXvXvXvXvXvXvXvXvXvXvXvXvXvXvX",
"vXvXvXvXvXvXvXvXvXvXvXvXvXvXvXvXvXvXvXF 1.Y 0 p e *.=.e.hXhXkXsXsXqXuXgXyX7.q.% . vXvXvXvXvXvXvXvXvXvXvXvXvXvXvXvXvXvXvXvXvXvXvX",
"vXvXvXvXvXvXvXvXvXvXvXvXvXvXvXvXvXvXvX} Y k x x f y o.:.eXjXwXsXgXgXhXuX7.5.vXvXvXvXvXvXvXvXvXvXvXvXvXvXvXvXvXvXvXvXvXvXvXvXvXvX",
"vXvXvXvXvXvXvXvXvXvXvXvXvXvXvXvXvXvXvX~ p 6XkXdXeX9.= *.:.9XuXeXtX9X9.O.=./ vXvXvXvXvXvXvXvXvXvXvXvXvXvXvXvXvXvXvXvXvXvXvXvXvXvX",
"vXvXvXvXvXvXvXvXvXvXvXvXvXvXvXvXvXvXvXp B hXuXjXsXsX5XB $.e.iXdXW.W.q.e =.T f vXvXvXvXvXvXvXvXvXvXvXvXvXvXvXvXvXvXvXvXvXvXvXvXvX",
"vXvXvXvXvXvXvXvXvXvXvXvXvXvXvXvXvXvXvXy C aXzXzXsXxXlXQ.~ ,.1XqXE.9X0.7 %.= i vXvXvXvXvXvXvXvXvXvXvXvXvXvXvXvXvXvXvXvXvXvXvXvXvX",
"vXvXvXvXvXvXvXvXvXvXvXvXvXvXvXvXvXvXvXw x sXkXxXfXaXlXrXw.%.v x V n h 0 4 u vXvXvXvXvXvXvXvXvXvXvXvXvXvXvXvXvXvXvXvXvXvXvXvXvXvX",
"vXvXvXvXvXvXvXvXvXvXvXvXvXvXvXvXvXvX! =.+.aXfXxXlXdXrXQ. .E b g i i y ~ 8.yXvXvXvXvXvXvXvXvXvXvXvXvXvXvXvXvXvXvXvXvXvXvXvXvXvXvX",
"vXvXvXvXvXvXvXvX-X,X-XvXvXvXvXvXvXvX>.%.&.E.zXzXjXfXfXpXW.o.w d i = ~ X.0XdXvXvXvXvXvXvXvXvXvXvXvXvXvXvXvXvXvXvXvXvXvXvXvXvXvXvX",
"vXvXvXvXvXvXvXvXvX;X,XvXvXvXvXvXvXT 3.*.$.W.xXgX2X1Xj V 0.5.e u = Q Q +.Q.3X7X7XvXvXvXvXvXvXvXvXvXvXvXvXvXvXvXvXvXvXvXvXvXvXvXvX",
"vXvXvXvXvXvXvXvXvXvX;X-XvXvXvXvXvXvX .^ =.Q.8X2X8XrXsXhXeXB e 8 E q ; w 9 B r.e.vXvXvXvXvXvXvXvXvXvXvXvXvXvXvXvXvXvXvXvXvXvXvXvX",
"vXvXvXvXvXvXvXvXvXvXz l vXvXvXvXvX .;Xh q 7.2XtXjXjXdXkXdXq.X.} # vXvXvXvXvX5.D _ w.vXvXvXvXvXvXvXvXvXvXvXvXvXvXvXvXvXvXvXvXvXvX",
"vXvXvXvXvXvXvXvXvXvXvXvXc c l c x n x c j V uXjXhXkXuXzXdXq.X.> vXvXvXvXvXvXvXvXvXD _ w.vXvXvXvXvXvXvXvXvXvXvXvXvXvXvXvXvXvXvXvX",
"vXvXvXvXvXvXvXvXvXvXvXvXvXvX0  .+.o.o.{ *.R.aXzXwXfX0X0XE.q.7.vXvXvXvXvXvXvXvXvX|. XU.^ _ w.vXvXvXvXvXvXvXvXvXvXvXvXvXvXvXvXvXvX",
"vXvXvXvXvXvXvXvXvXvXvXvXvXvX<.<.3.$.;.>.<.e.fX9XR.5.7.q.Q.Q.P.vXvXvXvX|. X].J.A.V.v.l.g.| D ) r._.~._.vXvXvXvXvXvXvXvXvXvXvXvXvX",
"vXvXvXvXvXvXvXvXvXvXvXvXvX:.*.>.*.>.3.=.=.*.X.X.U K T 5.+.s vXvXvX X/.C.z.h.f.vXvXvXvXvXvXvXvXS _ 2.p.B.(._.vXvXvXvXvXvXvXvXvXvX",
"vXvXvXvXvXvXvXvXvXvXvXvXvX{ ;.>.3.3.>.3.4.4.>.L J < J P I = M `.D.x.l.d.vXvXvXvXvXvXvXvXvXvXvXvXvXS ) ` vXM.`._.vXvXvXvXvXvXvXvX",
"vXvXvXvXvXvXvXvXvXvXvXvXvX*.,.:.:.<.#.<.<.<.,.R G > G 1 , ; q -.s.| vXvXvXvXvXvXvXvXvXvXvXvXvXvXvXvXvXS vXvXvXB.`.vXvXvXvXvXvXvX",
"vXvXvXvXvXvXvXvXvXvXvXvX} =.4.>.<.:.R ,.<.<.&.R , , , 1 2 f q R W { #.vXvXvXvXvXvXvXvXvXvXvXvXvXvXvXvXvXvXvXvXvXvX!.vXvXvXvXvXvX",
"vXvXvXvXvXvXvXvXvXvXvXvXvX>.%.! >.,.L $.<.4.Q P , G q v c y P P P R R Q } vXvXvXvXvXvXvXvXvXvXvXvXvXvXvXvXvXvXvXvXvXT.vXvXvXvXvX",
"vXvXvXvXvXvXvXvXvXvXvXvX#.<.<.#.H ,.L R :.:.R 1 w ;X;Xk = K P P R P P R E W vXvXvXvXvXvXvXvXvXvXvXvXvXvXvXvXvXvXvXvXvXT.vXvXvXvX",
"vXvXvXvXvXvXvXvXvXvXvXY ;.;.4.,.L #.U J R R G < < j 0 6 P P R P J J G 5 5 P W vXvXvXvXvXvXvXvXvXvXvXvXvXvXvXvXvXvXvXvXvXvXvXvXvX",
"vXvXvXvXvXvXvXvXvXvX{ #.,.#.4.4.Q U #., S G < 4 ] ;.,.:.&.%.#.! Q W R R P R P } vXvXvXvXvXvXvXvXvXvXvXvXvXvXvXvXvXvXvXvXvXvXvXvX",
"vXvXvXvXvXvXvXvXvXvX<.4.4.! 3.3.#.P %.H 1 G 6 |.].`.!.a.6 5 < 5 H P P P R K J E vXvXvXvXvXvXvXvXvXvXvXvXvXvXvXvXvXvXvXvXvXvXvXvX",
"vXvXvXvXvXvXvXvXvXT.<.{ =.=.{ *.W R R R R G L.$X$X$X$X@XY.{ } P J H L G 5 G K vXvXvXvXvXvXvXvXvXvXvXvXvXvXvXvXvXvXvXvXvXvXvXvXvX",
"vXvXvXvXvXvXvXvX`.#XY.W J :.U 5 G W %.{ 5 @.#X$X$X$X$X$X|.O.{ R W J G 5 < , vXvXvXvXvXvXvXvXvXvXvXvXvXvXvXvXvXvXvXvXvXvXvXvXvXvX",
"vXvXvXvXvXvXvX+X$X#XoXv ..[ #.5 ! Q P L J U.$X$X$X$X$X$X<Xl 7 > 5 5 J P 4 vXvXvXvXvXvXvXvXvXvXvXvXvXvXvXvXvXvXvXvXvXvXvXvXvXvXvX",
"vXvXvXvXvXvXoX$X#X#XI.&X:Xa 6 > [ J 5 ..T.#X).[.#X$X+XI.z k g * 3 a.a.@.vXvXvXvXvXvXvXvXvXvXvXvXvXvXvXvXvXvXvXvXvXvXvXvXvXvXvXvX",
"vXvXvX X@X$X$X#XOXdXV =X=Xz i.i & o T.).^.D.[.{.J.V.j.c h p * 3  XOX@X#X.Xu.vXvXvXvXvXvXvXvXvXvXvXvXvXvXvXvXvXvXvXvXvXvXvXvXvXvX",
"vXvX+X$X$X$X$X$X$X+Xk :X&X6.m g O M $XOXZ.C.C.z.z.z.z.z.B g u 3 g.z.l.n.n.z.vXvXvXvXvXvXvXvXvXvXvXvXvXvXvXvXvXvXvXvXvXvXvXvXvXvX",
"vX X$X$X$X$X$X$XXX}.&X:Xc L.%X* @ |.$X$XOXF.J.H.H.x.z.z.z.k.V.@X`..X@XoX].G.vXvXvXvXvXvXvXvXvXvXvXvXvXvXvXvXvXvXvXvXvXvXvXvXvXvX",
"vX$X$X$X$X$X$X$X^.i.h &X6.m g   L.#X$X$X$X$XXXA.x.C.x.z.z.C.OX#X$X$X+X$X#X$X+XvXvXvXvXvXvXvXvXvXvXvXvXvXvXvXvXvXvXvXvXvXvXvXvXvX",
"vX`.Z.C.(.$X$X$X{.N p 8 X.7 # r v.S.).$X$X$X$X$XZ.z.z.z.v.H.OX$X$X$X$X$X$X$X$X.XvXvXvXvXvXvXvXvXvXvXvXvXvXvXvXvXvXvXvXvXvXvXvXvX",
"vXu.^.@X$XOX'./.a.*X&XB N * O u.J.C.H.OX$X$XOXJ.V.z.z.z.z.V.C.XX$X$X$X#X{.'.{.OXg.vXvXvXvXvXvXvXvXvXvXvXvXvXvXvXvXvXvXvXvXvXvXvX",
"vX X$X@XOX].G.c.M >X-XU.f & $ c.m.m.G.#X$X$X#X#X[.V.z.z.n.J.#X$X$X$X#X{.S.z.z.c.u.vXvXvXvXvXvXvXvXvXvXvXvXvXvXvXvXvXvXvXvXvXvXvX",
"vX$X$X$X$X$X$X{.K.*XK.Z g @ T.+X[.H.H.^.$X$X$X$X{./.x.z.z.z.v.{..XC.z.z.z.z.z.d.vXvXvXvXvXvXvXvXvXvXvXvXvXvXvXvXvXvXvXvXvXvXvXvX",
"!.$X$X$X$X$X$X#Xz.L. X).J.G.(.J.c.z.x.z.A.$X#X^.H.Z.z.z.z.z.x.x.v.z.z.z.z.z.z.k.vXvXvXvXvXvXvXvXvXvXvXvXvXvXvXvXvXvXvXvXvXvXvXvX",
"N.$X$X$X$X$X$X#X.XXXJ././.D.x.z.c.z.z.x.z.OXOX$X$X$XOXC.z.v.V.V.x.z.z.z.z.z.z.z.vXvXvXvXvXvXvXvXvXvXvXvXvXvXvXvXvXvXvXvXvXvXvXvX",
"h.).$X$X$X$X$X$X$X$X$X#X$X$X@XC.z.z.z.v.b.{.F.OXOX^.H.^.z.n.[.{.).A.z.z.z.z.z.z.vXvXvXvXvXvXvXvXvXvXvXvXvXvXvXvXvXvXvXvXvXvXvXvX",
"vXz.D.OX$X$X$X$X$X$X$X).'.$X$XJ.z.J.OX$X$X$XF.A.v.z.z.z.z.z.z.z.z.x.x.z.z.x.z.f.vXvXvXvXvXvXvXvXvXvXvXvXvXvXvXvXvXvXvXvXvXvXvXvX",
"vXvXh.x.C.J.).[.).F.c.v.#X$X#XF.{.$X[.D.Z.D.v.z.z.z.z.z.z.z.z.z.z.z.z.z.k.d.y.vXvXvXvXvXvXvXvXvXvXvXvXvXvXvXvXvXvXvXvXvXvXvXvXvX",
"vXvXvXvXg.h.l.h.u.h.z.XX$X$X$X$XOXA.z.c.m.m.c.z.z.z.z.z.z.z.z.z.z.z.z.z.z.g.vXvXvXvXvXvXvXvXvXvXvXvXvXvXvXvXvXvXvXvXvXvXvXvXvXvX",
"vXvXvXvXvXvXp.y.u.z.z.v.J.).^.A.c.b.].#XXX^.S.z.z.z.z.z.z.z.z.x.z.z.z.z.z.z.vXvXvXvXvXvXvXvXvXvXvXvXvXvXvXvXvXvXvXvXvXvXvXvXvXvX",
"vXvXvXvXvXvXvXd.t.f.z.z.z.z.z.z.c.@X#XA.z.z.z.z.z.z.z.z.z.z.z.z.z.z.z.z.z.k.vXvXvXvXvXvXvXvXvXvXvXvXvXvXvXvXvXvXvXvXvXvXvXvXvXvX",
"vXvXvXvXvXvXvXa.y.t.t.u.f.g.f.u.M.$XS.z.z.z.z.z.z.z.z.z.z.z.z.z.z.z.z.z.z.d.vXvXvXvXvXvXvXvXvXvXvXvXvXvXvXvXvXvXvXvXvXvXvXvXvXvX",
"vXvXvXvXvXvXvXvXvXi.y.t.t.t.t.t.M.$Xv.z.z.z.z.z.x.z.z.z.z.z.z.z.z.z.z.z.g.vXvXvXvXvXvXvXvXvXvXvXvXvXvXvXvXvXvXvXvXvXvXvXvXvXvXvX",
"vXvXvXvXvXvXvXvXvXvXvXvXp.p.p.p.vX XA.z.z.z.z.z.z.z.d.l.z.x.z.z.z.z.k.d.vXvXvXvXvXvXvXvXvXvXvXvXvXvXvXvXvXvXvXvXvXvXvXvXvXvXvXvX",
"vXvXvXvXvXvXvXvXvXvXvXvXvXvXvXvXvXvX~.c.z.z.x.z.g.y.t.y.u.f.h.f.f.vXvXvXvXvXvXvXvXvXvXvXvXvXvXvXvXvXvXvXvXvXvXvXvXvXvXvXvXvXvXvX",
"vXvXvXvXvXvXvXvXvXvXvXvXvXvXvXvXvXvXvXvXM.u.y.t.t.y.vXvXvXvXvXvXvXvXvXvXvXvXvXvXvXvXvXvXvXvXvXvXvXvXvXvXvXvXvXvXvXvXvXvXvXvXvXvX"
};
