/* XPM */
static char *images[] = {
/* columns rows colors chars-per-pixel */
"64 64 256 2 ",
"   c #030203",
".  c #0C0B0C",
"X  c #070509",
"o  c #120A0B",
"O  c #0D0C13",
"+  c #180D14",
"@  c #181418",
"#  c #23161B",
"$  c #391712",
"%  c #14162F",
"&  c #281926",
"*  c #311E32",
"=  c #292829",
"-  c #34312E",
";  c #2C2C34",
":  c #382638",
">  c #333334",
",  c #35353A",
"<  c #3B3B3D",
"1  c #3A3739",
"2  c #312D2F",
"3  c #282420",
"4  c #483334",
"5  c #652B18",
"6  c #514739",
"7  c #6E5432",
"8  c #09154D",
"9  c #3D3D41",
"0  c #373644",
"q  c #332D48",
"w  c #0D2477",
"e  c #252E6E",
"r  c #422D44",
"t  c #463647",
"y  c #493B55",
"u  c #523B50",
"i  c #5C3C5B",
"p  c #2D4766",
"a  c #474648",
"s  c #564759",
"d  c #585659",
"f  c #4E4B51",
"g  c #68544F",
"h  c #5A4A65",
"j  c #5A5767",
"k  c #534C73",
"l  c #66556A",
"z  c #6B5A75",
"x  c #6D566E",
"c  c #5C6168",
"v  c #78647A",
"b  c #77757A",
"n  c #6C686D",
"m  c #756551",
"M  c #93340F",
"N  c #A83A08",
"B  c #B53B07",
"V  c #A53B13",
"C  c #8A3F31",
"Z  c #C33E07",
"A  c #9C4A1A",
"S  c #BA4409",
"D  c #AD4D19",
"F  c #91502C",
"G  c #AD5528",
"H  c #AE6A34",
"J  c #91692C",
"K  c #C74709",
"L  c #D54B07",
"P  c #CA520C",
"I  c #DA580A",
"U  c #D45911",
"Y  c #C95112",
"T  c #E45D07",
"R  c #E25E10",
"E  c #DB6512",
"W  c #ED6505",
"Q  c #EE6905",
"!  c #E3630A",
"~  c #EB650A",
"^  c #EC6A0A",
"/  c #E56207",
"(  c #F26703",
")  c #F16803",
"_  c #F16709",
"`  c #E46813",
"'  c #C8682A",
"]  c #8F7153",
"[  c #BB7B47",
"{  c #AC744F",
"}  c #8C736D",
"|  c #A77B68",
" . c #895B50",
".. c #C37A4F",
"X. c #CB7F60",
"o. c #B48950",
"O. c #988774",
"+. c #B38E6E",
"@. c #A8945A",
"#. c #CA8749",
"$. c #CA8757",
"%. c #D38A58",
"&. c #D48C51",
"*. c #CA966B",
"=. c #CBA379",
"-. c #D7A778",
";. c #D0AE70",
":. c #E1A773",
">. c #C8AA4D",
",. c #142E8F",
"<. c #1637A7",
"1. c #1639B3",
"2. c #22348C",
"3. c #1D548F",
"4. c #235B93",
"5. c #26568C",
"6. c #2F6898",
"7. c #3872A6",
"8. c #384DA8",
"9. c #53568C",
"0. c #665A89",
"q. c #536E97",
"w. c #7B6983",
"e. c #716D8E",
"r. c #4C74A8",
"t. c #746CBB",
"y. c #736CB5",
"u. c #7B75BB",
"i. c #7069AF",
"p. c #675DA2",
"a. c #7C73C3",
"s. c #7F78C6",
"d. c #766DC0",
"f. c #1639C0",
"g. c #836C86",
"h. c #877589",
"j. c #897997",
"k. c #917B97",
"l. c #827BBD",
"z. c #887CB5",
"x. c #8C7BA6",
"c. c #A77A87",
"v. c #837BC4",
"b. c #857BCA",
"n. c #867BCA",
"m. c #887CD1",
"M. c #3389BE",
"N. c #768693",
"B. c #5B92B9",
"V. c #5289B2",
"C. c #6896BA",
"Z. c #779ABB",
"A. c #718EAB",
"S. c #779CC2",
"D. c #669CC3",
"F. c #639FCA",
"G. c #3B92C6",
"H. c #948699",
"J. c #8C8A8E",
"K. c #B39188",
"L. c #B0A798",
"P. c #9988A5",
"I. c #9993A6",
"U. c #8984BA",
"Y. c #859CBC",
"T. c #948FB2",
"R. c #A496AB",
"E. c #A999B5",
"W. c #AC92AB",
"Q. c #94A3B8",
"!. c #B5B4B8",
"~. c #B0A8B1",
"^. c #9CA09B",
"/. c #D8B997",
"(. c #CFB08D",
"). c #E8B988",
"_. c #E5BB93",
"`. c #C299B3",
"'. c #CCB0B2",
"]. c #CC9B81",
"[. c #E7C499",
"{. c #F3CA97",
"}. c #DCC4A9",
"|. c #D6C6B7",
" X c #E9CAA6",
".X c #F2CDA8",
"XX c #FBD5A4",
"oX c #FAD5A9",
"OX c #F8D7A9",
"+X c #E9D3B7",
"@X c #F6D9B5",
"#X c #EACFB4",
"$X c #FAE1BB",
"%X c #DCC194",
"&X c #8B83C5",
"*X c #8C84CC",
"=X c #8B89C8",
"-X c #938CCB",
";X c #938CC6",
":X c #859EC3",
">X c #9B95CC",
",X c #9893C8",
"<X c #8C86D1",
"1X c #938CD3",
"2X c #9C95D3",
"3X c #9B96D3",
"4X c #A39CD4",
"5X c #AA9EDA",
"6X c #A49ACC",
"7X c #98A5C5",
"8X c #88A2C4",
"9X c #A8A6C7",
"0X c #B6AAC5",
"qX c #AAA4D7",
"wX c #B3ADDB",
"eX c #B2ABD7",
"rX c #BAB5DB",
"tX c #BDBADD",
"yX c #B7B3D8",
"uX c #B0B6CC",
"iX c #B6ABE3",
"pX c #BDB6E5",
"aX c #AEA8E4",
"sX c #C9ADC5",
"dX c #D2ABC4",
"fX c #C6B6C8",
"gX c #C1BDDD",
"hX c #C7B9D4",
"jX c #C2BCE4",
"kX c #C4BCEA",
"lX c #C3B7EB",
"zX c #C7BFF0",
"xX c #B8C7E4",
"cX c #BBC5D9",
"vX c #C8C5DA",
"bX c #D4CFD0",
"nX c #EAD9C9",
"mX c #F4E6D0",
"MX c #C5C2E4",
"NX c #C9C5E4",
"BX c #CDCAE4",
"VX c #CAC5EC",
"CX c #CDCAEC",
"ZX c #C4C2EC",
"AX c #D1CEEC",
"SX c #D1CDE5",
"DX c #D6D5E9",
"FX c #CCC8F1",
"GX c #D2CDF1",
"HX c #DAD6F4",
"JX c #DAD7F3",
"KX c #C8D8EC",
"LX c #EAE9F5",
"PX c #FBFAF9",
"IX c #F1EDE8",
"UX c #DFDEF0",
/* pixels */
"VXlXwX5X5X5XlXlXlX5XlXlXl .                     > I.MXMXkXjXgXgXkXAXHXHXGXGXVXzXNXkXkXlXjXlXkXVXVXVXt vXc O X   3 s h.~.x t v IX",
"zXiXiXaX5XiXlXlXiXiXlX5XO                         O z tXpXjXjXjXAXJXHXHXGXGXBXVXjXkXjXjXjXjXzXCXAX~.O J.X .   X 3 1 h.R.h t h.LX",
"lXiXiX5XaXlXlXlXiXiXlXj.                        X     f tXjXVXVXHXUXHXJXGXGXVXVXkXjXjXjXjXzXVXGXHXd O O X O   . . : v k.h : J.LX",
"lXlXlXiXaXpXlXpXlXlXlXr                 O               h NXVXGXJXJXJXHXGXGXBXzXkXkXkXkXlXVXGXGXvXO   X . O       4 d h.v 4 R.LX",
"zXlXiXiXiXlXpXpXiXkXpX@         .       O 3             X N.SXGXJXJXHXHXGXGXzXzXZXkXVXzXZXFXAXAXe.      @ .       1 r n } : R.LX",
"zXlXpXpXpXlXlXpXeXFX9XX       2 c o .     . 3         . X O uXJXJXHXHXJXAXSXVXBXkX4XiXlXVXCXCXNX<     . = .       : & h g.: ~.LX",
"VXlXlXlXlXpXMXpXjXyXJ.X     X c .       .   . 3 O 2 1 9 t 9 e.JXJXJXHXAXAXCXAXlX3Xt.v.v.iXMXtXI.O     @ -         o + u k.4 !.LX",
"VXzXlXlXpX0.; ; ; 0 = X   X @ d       1 - @   @ > > a R.vXBXDXLXJXJXHXAXAXCXzX6Xt.y.u.a.5XMXrXj X   X = =         X # r v * ~.PX",
"FXZXzXZXxXyXq X X         @ = f   X ] } d =     3 d BXJXCXwXCXLXJXJXJXAXFXFXFX3Xa.y.t.a.v.qXrX&     . = =         @ & : x : ~.IX",
"GXZXzXpXzXBXY.; O     .   a @ a   3 .X Xm a @   O 0XFXFXpXaXiXJXJXJXAXGXFXFXFX3Xs.s.t.y.y.-XpX@     @ 1 m .     X - a 1 l : R.LX",
"GXFXiXaXkXZX3Xk ; O   O . f . 6    .oXOX#Xn - .   e.pXpXaXaXqXjXUXJXFXpXpXFXwXu.m.s.t.y.i.*X,XO O . # +.+Xg     + = e.y s * H.rX",
"FXFX3Xv.<X3Xy.0.&     O . f   >   =.oXoX@X!.c o   , e.wXwX3X,X6XJXFX5X<X1XpXaXu.s.a.d.i.t.u.u.O 6 o 4  X.XO.    3 3 ^.v u : l ;X",
"FXpXm.d.d.9.q O       o @ a . 7 o -.oXoXOXnXn ,   , c I.4X2XU.>XHXxX1Xm.<XaXaXs.m.a.t.y.s.*Xn.@ m # ] {.oXK.X X = = fXP.r 4 t n.",
"FXn.d.p.q X             6 a 3 ] o ).[.oXXX'.6 a X . 0 c qX1X;X>XxXpX<XS.a.1X<Xs.s.t.t.t.b.<Xv.& ] - +.XX#X/.X O = 1 z E.t 4 : i.",
"aXm.s.i.0 % X         o o.1 3 5 o +.}. XOXO.~.> O O % 0 >X6X,X=X*XiX1Xu.u.u.a.a.a.y.a.<X<X<X;X4 ]  .=.oX+X/.. # O . n fXt & & 0.",
"<Xa.a.s.*Xi.k 0 #     . [ | 3 { 7 - J.nX}.^.} ; ; 9 9X9X4X-X&Xu.v.3X<Xa.y.u.t.s.s.s.=X=X1X-X;X6 o.@.].#XL.m O.f X @ R.sXi & & 0.",
"<Xa.s.m.m.n.&Xe.a 0 ; @ ] (.] { ].W.^.} | L.b ,Xz y qXqX,X=Xl.u.*X<Xd.d.t.t.t.n.n.-X-X=X1X;X4Xg O.{ +.K.f +.(.c @ 1 ~.hXl & # k ",
"a.s.m.m.m.s.n.n.u.j . # g :.%.%.$.+.L. X_.|.T.>X6Xh aX4X-Xv.s.&Xn.s.d.i.t.t.t.n.,X2X>X-X2X2X2Xh ] +.] < nXoX].g & n P.hXv & # h ",
"s.a.m.m.m.n.n.n.U.; @ 4 4 $.%.%.X.).$XoX{.nX,X4X4XU.4X4X,X&X&X*Xs.t.t.t.d.s.n.1X-X4X4X4X4X4X2Xj.b +.m (.#X#X+.g 4 n z hXz # # q ",
"d.a.s.m.n.v.v.&XU.u.9.y ; H { %.%.)..XXX].fX-X2X6X6X4X4X,X-X=X&Xd.t.y.t.a.b.<X1X2X4X6X6XqXqX4XT.O.m (.(. XmX+.- 9 h.w.fXh # + * ",
"t.v.v.n.v.l.l.b.t.l.l.v.x.{ %.$.%.). X[.%X0X=X2X>X>X4X>X,X=Xl.a.i.t.i.d.b.*X2X5X4X4X5XqXqXqX6XT.} K.}..XnXmX(.& z k.g.9Xh + + # ",
"t.a.a.v.l.l.l.v.v.b.v.v.g...%.[ %.)..X=.|.U.=X=X,X2X4X-X&Xu.u.y.t.i.a.s.1X1X3XqXqXeXqXqXqXqX6X,X} @./..XnXnX#XP.0.x.v E.x # + + ",
"t.l.n.z.l.z.l.l.l.v.l.x. ...%.$...-.oX#XR.v.&X=X,X4X2X;XU.u.y.u.a.s.<X<X>X3XqXwXeXeXeXwXwXqX2X3XP.| (..X@XdX@XE.i.W.g.W.x # & o ",
"l.&X*X*X>Xn.l.l.l.l.v.} $...%.%.*.o.[. XT.n.} T.1X3X2X-XU.l.l.U.=X1X5X1X3X4XiXrXrXeXeXiXwXqX4X3X-X} @. X@XK.O.e.z.k.g.k.h & # + ",
";X4X4XqXqX3X1XU.e.4 }  .%...%.*...{.-. X'.h.F | 1X>X2X-X=X;X-X>XqXqXqXqXwXrXrXpXrXwXeXwXwXqX4X4X;XU.O.#XO.< < c z.h.v h.v * # # ",
"4XiXiXiXeX4X3X;Xg M M { %.X.:..X{ [.OX[. X@X{ G W.5X5X6X9XqXqXqXwXiXpXpXpXjXMXpXrXwXeXwXiXwXeX3X>X=Xl 6 - , a ^.P.e.P.z g.= @ # ",
"yXtXMXMXrXuX9Xx 5 B Z V H $./.mXo.*.}.%X)..X|.D F c.hXeXiXiXhXrXtXcXkXMXMXNXMXgXrXyXeXwXrXiXwXqX3XA.; > < 9 L.;.L.R.R.l z * # # ",
"NXNXNXBXZXpX .5 M M B B D *.*.+.$.[.bX}.}.*._.*.Y Y | hXxXkXhXgXNXBXMXNXMXNXMXpXrXyXeXwXyXrXiXqXH.f = ; 6 L.>.m 0 > v h i * + + ",
"SXSXBXBXNX} V M 5 5 M B B V G &.%.-.mXIXmX..oX.XU U ` *.hXSXSXvXBXBXBXNXNXVXMXpXrXyXeXyXyXtXuXJ.] d = n L.J @.< < 1 t h r : # + ",
"DXDXAXAXW.M K L Z M M V B N M ..%.$._.@XIX(.oXoX' I _ ` X.SXSXAXSXAXBXCXBXZXMXgXtXyXeXyXtXE.d @.m } !.!.nXJ a , 9 1 0 s y : & + ",
"BXSXSXvXH ` _ _ ( T L K N P P ' %.X.).oXoXnXoXXX` ^ ^ ( L X.GXHXDXAXAXCXMXZXjXpXrXyXyXrXtXf 6 O.L.uXbXIXUXL.a 9 9 > , s u q * & ",
"SXBXBX!.' U U ^ ( ( _ ~ R I W ` ' %.:.XXoX@X.X{.` ` _ ~ T Z c.HXSXDXCXCXNXMXvXtXrXyXyXtXQ.= c ^.bXPXPXbXbXbX1 < > < , l u r 4 q ",
"BXBXrXK.A J A P ^ ( ) ) ~ ! / ( ` ' &.oX@XOXXX).~ R _ Z Z L [ DXDXSXCXBXMXMXpXtXyXrXrXrXe.1 J.!.IXPXPXUX!.a < > < < < w.: t r u ",
"BXjXjX .A [ H J U ) ( ( Q Q / / ^ ` ' {.OXOX{.:._ ~ _ Z M K +.DXDXAXVXMXMXjXtXtXrXyXtXcXc 6 J.fXbXUXIXUXd 9 < - > < 1 J.0 r : u ",
"SXvXtXO.H #.H [.[ U ) ) ) ) ( ! ` ^ ` %.OXXX X&.^ R _ L M V (.UXAXNXMXvXMXgXtXtXtXyXtXI.; f !.PXPXPXIXJ.< < > > > > a Q.y r : u ",
"AXNXvX@.&.&.;.IX/.' Q ) ( ) ( Q I ! Q E #.XX X` T _ ( L N G +.DXBXNXvXtXtXgXjXtXtXrXrXc n UXPXPXDX!.bX< 9 < > > > > N.uXl 4 : r ",
"DXSXvXo.:.#.+XPXIX$.E W Q ( ( ( ( / / _ E #./.^ T ^ ( L N H +.'.MXMXvXtXtXtXgXtXpXtX9XI.PXPXPXIXbX!.b 9 < < - > ; j 0XeXl r r r ",
"JXDXDX| ).#.$XPXPX_.' ^ Q W ) ) ) ) ~ I ! E G ) / Q ( I M ..|.'.MXMXtXgXtXtXrXtXrXuXv !.PXPXPXIXJ.~.d < < > = < a eXyXE.k t u r ",
"LXUXUXo.{.>.$XPXPX.X#.E ( I Q ) ) ) ) ~ T ` Y ~ ^ _ ( L S *.nX'.vXMXgXtXyXyXyXeXyX9X0 ~.PXPXPX!.n c 1 < > < > < n rXrXT.z i r u ",
"LXUXJX=.XX-.OXPXIX-.#.H ( P ) Q ) ) ) Q W U ~ ! ( ( _ D A /.+X(.fXpXgXtXuXeXqXuXeXN., ~.PXPXcX^.d - - - < < = < ~.tXrXR.v h q i ",
"LXLXLXL.{.XXXXmX=.o.[ D ! S Q ) Q ) ( ) Q I Q ! ( I D V B @X/.(.~.xXxXtXaXuXuXxXpXe.- b LX!.!.b > < < < < < > @.'.cXcXP.k.t q u ",
"KXJXKX~.;.XXOX%X;.XX+.D U S ) Q ) ( ( ) Q ! ^ ! W Y Y Y Z /.+X X(.tXtXxXxXxXxXxXKXe.< a ~.!.J.f - > < > < < < >.xXxXcXw.k.u q r ",
"Q.uXY.e.[ {.%X[.XXXX*.D S S Q Q ) ( ( ) / ~ ! ^ ^ U I U B {.nX#X+XJ.:X7XqXuXuXeX7Xd < - J.J.O.a > - - < < < J %XxX9XT.s g.r : 4 ",
"9.p.q.h o.%X/.OXoXOX+.A S S ^ ! ^ ( ( ( T ~ / W T U U B V _.oXnX+X'.0.e.Z.uXxX9XA.y > > 9 c N.d > < < < > !.@.L.S.e.e.j v * u r ",
"9.k k h %X+./.XXXXmX=.A N Y Q I ~ ) Q Q / ! / ^ I U P B G :.XX+X%X@X~.T.9X0XP.U.i.0.y 0 h k g 6 = 6 - - n bX>.J.i.e.W.h g.* i q ",
"w.g.j.g.[./.{.XXXXPX@.M N U ) Q I ) Q / / ! Q ~ I R I S F #.XX$X(.OX+XH.W.k.W.x.P.H.k.k.j.g.7 7 - 3 = < !.nX>.^.k.y.x.w.w.: x 4 ",
"`.`.`.K.[.(.XXXXOXPX .N N E Q Q L Q ^ ! / / Q I T ( K N 5 &.{.@X/. X@X~.`.`.`.W.`.`.`.`.`.W.7 J >.@.;.O.DXnX-.E.T.0.x.} v : v r ",
"`.dXdXK.:.-.XXXX$XPXG S N / ( Q P ~ ! ^ / Q ^ L T ( L M A #.*.OX(.}.OX}.'.dXdXdX'.dXdX`.dXP.m ] J ^.L.L.IXPXIXqXS.q.k.v x q w.r ",
"dXdXdXK.[ *.XXXXmXPXD N S Q ) ^ U L L ^ T Q T L T ( Z V V ..$.).(./.OX+X'.dXdXdXdXdXdXsX'.I.c c N.N.O.N.^.J.c S.F.F.P.w.s s g.t ",
"dXdXsX].o.&.XXXXmXPXM M P ) ) ) ^ K I / ! Q L L W W B Z Z G #.*.%X_.oX@X'.sXsXsXsXsXfXsXfXI.> > @ - < < < < a F.M.M.x.w.: x h.r ",
"sXsXsX| #.*.XXXXIXPXA N E ( ( ) Q I ^ / ^ / K L ( ( Z Z K | H ).).XXOX X~.sX0XsX0XfX0XsXsXw.> ; 3 < < < < < - M.M.7.0.H.* z k.r ",
"9XsX0X| #.;.oXXXPXmXN B R ( ) ) Q ! / / ^ T L T ( ( Z L L } #.)..XoXOX}.E.9X0X0X9X0X0X!.uXe.> > - < < < < < > 7.M.7.n H.: } h.t ",
"9X9XE.@.#.*.XXoXPXmXV N T Q ^ ` U T / Q ( T T ( ~ T T L ' c.%.XXXX[.{.'.7X9X7X7X7X7XQ.9X7Xb > < - < < < < < < q.V.8.z z i g.w.t ",
"8X>X7Xo.#.%.XX@XPXDX .V L ^ P S B T I ^ ( R ( ~ _ ( ( R H J.:.XXOX(.OX!.8XQ.7X8X7X7X8X7XQ.c > , = < < < < a < q.p.p.l i v g.w.r ",
"8X8XQ.{ #.[ OX@XPXcXI.F B B B S S I ! ^ ) I _ R ~ ( ( U C * `.oX.X;.$XQ.:X8XY.8X8X8X8XY.S.c - > - > > > < a > c 9.9.i w.w.g.g.* ",
":X:XY.| #.#.[.@XIXQ.Y. .N B B N K I / ) ! K R K _ T _ L M % e |.(.[.|.Y.:XZ.:X:XY.:XY.Y.D.a = > > > > > < 9 < p k k h W.x w.x * ",
"Z.S.Z.@.#.#.*..XbXZ.S.b S B S S Z I ! ^ Y E Z T L T _ R 5 8 1.8.+.OX!.Z.Z.Z.Y.S.Z.Z.Z.Z.Z.> - < 9 9 < , < 4 a h i.k k.E.x g.l * ",
"Z.Z.C.O.#.#.#.*.J.Z.S.N.A N N S Z I ^ ! K ~ M T Z L ( T 5 w 1.1.H.bXA.S.S.Z.S.Z.Z.Z.Z.Z.C.- - < < 9 9 < > < < p p.0.0X0Xx k.u * ",
"Z.Z.S.b H [ ;.+.N.D.Z.A.n A N S Z R R U K L M T M Y E ' 3 <.f.1.9.A.Z.C.S.D.S.C.C.Z.C.B.A.= = < < < < < > < < a 9.j.W.E.h g.r & ",
"Z.Z.S.b H #.XX/.Q.C.Z.Z.C.F M N K R ` Z G A 4 7 r i k y 8 1.1.1.3.C.C.C.C.C.C.C.B.B.V.V.V.3 > < < < < < > , < p 8.P.P.g.k.v : & ",
"C.C.C.O.H &.XX[.Q.C.C.C.C.N.# 5 5 u i i e 2.,.,.<.<.,.,.,.1.1.1.V.B.C.B.V.r.r.V.M.7.6.6.5.= , < , < < < 1 ; 1 0 q.z W.w.E.l * & ",
"D.C.B.{ H >.XX{.bXC.A.C.C.q.X O % 8 8 8 <.f.1.1.<.<.w 8 w <.1.3.V.V.V.6.7.6.4.4.4.4.p 4.p = < 9 > < < > 9 > = ; 9.l w.j.W.u & & ",
"B.B.N.o.H &.XXXXnXB.B.B.B.j X O 8 % % 8 w 2.<.,.w ,.w % ,.<.<.7.7.6.6.6.6.4.4.4.4.4.3.3.3.; , < > > > > 9 < < , 0.w.h P.R.i & + ",
"B.V.b [ H &.XXOXmXC.B.B.B.4 5 $ % 8 % 8 8 w ,.w 8 w ,.q ,.<.3.4.p 6.4.3.3.4.4.3.3.4.3.3.3.; < < > > > > < 9 9 , 0.g.t R.P.u & & "
};
