/* XPM */
static char *south[] = {
/* columns rows colors chars-per-pixel */
"16 11 164 2 ",
"   c #B5770F",
".  c #C28416",
"X  c #C1841A",
"o  c #C5861C",
"O  c #C98B1D",
"+  c #CA8C1D",
"@  c #D49415",
"#  c #D99A17",
"$  c #D79718",
"%  c #D7971B",
"&  c #D89A19",
"*  c #DB9D19",
"=  c #DA991C",
"-  c #DC9C1D",
";  c #DC9C1F",
":  c #DDA01C",
">  c #DEA21F",
",  c #CC8F21",
"<  c #CD8F21",
"1  c #D39623",
"2  c #D19324",
"3  c #D39625",
"4  c #D69822",
"5  c #D49924",
"6  c #D69924",
"7  c #D69925",
"8  c #D99A20",
"9  c #DC9D20",
"0  c #DA9F27",
"q  c #DB9F28",
"w  c #D99D2A",
"e  c #DCA129",
"r  c #DDA228",
"t  c #DFA228",
"y  c #DEA229",
"u  c #DEA12A",
"i  c #DFA52D",
"p  c #DEA431",
"a  c #E0A320",
"s  c #E0A423",
"d  c #E2A622",
"f  c #E2A625",
"g  c #E6AB26",
"h  c #E6AC25",
"j  c #E3A72A",
"k  c #E2A62B",
"l  c #E0A42C",
"z  c #E1A52D",
"x  c #E0A72F",
"c  c #E1A82D",
"v  c #E1A92F",
"b  c #E5AA2D",
"n  c #E4A92E",
"m  c #E6AD2D",
"M  c #E7AE2C",
"N  c #E4AC2E",
"B  c #E6AC2F",
"V  c #E5AE2F",
"C  c #E9AF2D",
"Z  c #E8AF2F",
"A  c #E9B12A",
"S  c #EBB32A",
"D  c #E9B12E",
"F  c #E8B02F",
"G  c #E9B12F",
"H  c #EBB42E",
"J  c #ECB52E",
"K  c #ECB52F",
"L  c #ECB62F",
"P  c #EDB72F",
"I  c #EEB82C",
"U  c #ECB82F",
"Y  c #EFBC2C",
"T  c #F0BB2B",
"R  c #F1BD2B",
"E  c #F0BB2C",
"W  c #F0BB2F",
"Q  c #F0BC2C",
"!  c #F0BC2D",
"~  c #F2BE2D",
"^  c #F0BD2E",
"/  c #F1BD2E",
"(  c #F0BC2F",
")  c #E2A830",
"_  c #E0AA30",
"`  c #E1A833",
"'  c #E5AD30",
"]  c #E5AC31",
"[  c #E5AD31",
"{  c #E7AE31",
"}  c #E7AF31",
"|  c #E3AB34",
" . c #E4AA35",
".. c #E7B235",
"X. c #E8B030",
"o. c #E8B031",
"O. c #E8B131",
"+. c #E9B331",
"@. c #EBB330",
"#. c #EAB231",
"$. c #E9B032",
"%. c #E9B332",
"&. c #E8B233",
"*. c #EBB430",
"=. c #EBB530",
"-. c #EBB431",
";. c #E9B432",
":. c #EBB632",
">. c #EBB633",
",. c #EDB730",
"<. c #EDB731",
"1. c #ECB532",
"2. c #ECB633",
"3. c #EDB733",
"4. c #EBB534",
"5. c #ECB734",
"6. c #EDB830",
"7. c #ECB831",
"8. c #EDB831",
"9. c #EDB931",
"0. c #EDBA31",
"q. c #EFBA30",
"w. c #EEBB30",
"e. c #EEBA31",
"r. c #EEBB31",
"t. c #EDB832",
"y. c #EDB932",
"u. c #EDBA32",
"i. c #EDBB33",
"p. c #EEBB32",
"a. c #EFBB32",
"s. c #EEBA33",
"d. c #EFBA33",
"f. c #EEBB33",
"g. c #EFBC30",
"h. c #EFBD32",
"j. c #EFBC33",
"k. c #EFBD33",
"l. c #ECB834",
"z. c #EDB834",
"x. c #EDB935",
"c. c #EDBB35",
"v. c #EEBB34",
"b. c #EEBA35",
"n. c #EDBC35",
"m. c #EEBC34",
"M. c #EFBD34",
"N. c #EEBD36",
"B. c #EEBD37",
"V. c #EFBF36",
"C. c #E8B739",
"Z. c #EBBA3B",
"A. c #ECBC3A",
"S. c #EEBD3A",
"D. c #EDBB3C",
"F. c #F0BC30",
"G. c #F0BD31",
"H. c #F1BF30",
"J. c #F0BC32",
"K. c #F0BD33",
"L. c #F0BF34",
"P. c #EFC039",
"I. c #F2C031",
"U. c #F1C033",
/* pixels */
"@ # : h S J >.l.0.n.N.A.C._ X   ",
"& * d A 8.P H U w.V.B.D.Z...5 . ",
"$ > f L f.j.e.I ! g.P.S.c.v 0 + ",
"% a g ,.k.G.Q Y T ^ G.U.i.V 0 < ",
"= s M =.y.q.T E R ~ H.F.h.N i , ",
"- f Z *.6.j.M.W ( Q / I.a.%.e 1 ",
"9 j } -.<.d.v.m.r.L.K.J.b.;.r 6 ",
"; z  .O.2.t.x.s.u.7.<.z.5.&.c 7 ",
"8 t n m X.@.1.3.9.p.:.F o.[ x 4 ",
"4 y ) ] { X.#.#.+.K 4.$.B k q O ",
"2 w p ` | ] ' X.G D C b l u 3 o "
};
