/* XPM */
static char *sprite[] = {
/* columns rows colors chars-per-pixel */
"8 16 58 1 ",
"  c #08070A",
". c #08070B",
"X c #09090C",
"o c #111013",
"O c #6D2A18",
"+ c #4F3C36",
"@ c #293B5A",
"# c #153C6B",
"$ c #1B3E6A",
"% c #2E5169",
"& c #534440",
"* c #6B5341",
"= c #7D5F43",
"- c #7D5A5A",
"; c #7D6043",
": c #655D69",
"> c #6C6F7F",
", c #9A2B00",
"< c #9A2C02",
"1 c #AB3700",
"2 c #AC3600",
"3 c #AF3D04",
"4 c #994012",
"5 c #AA4004",
"6 c #B14204",
"7 c #B44205",
"8 c #B54B0A",
"9 c #B64F0A",
"0 c #BE4F0A",
"q c #BD5C10",
"w c #834421",
"e c #8A4825",
"r c #9E6730",
"t c #A6682D",
"y c #CE5B09",
"u c #CE5D0C",
"i c #D86309",
"p c #D36A0E",
"a c #D66A0E",
"s c #D97D19",
"d c #EA7C0C",
"f c #CD7621",
"g c #946C40",
"h c #A56247",
"j c #80767F",
"k c #E98211",
"l c #E48518",
"z c #F48F17",
"x c #D78235",
"c c #EB9024",
"v c #F89F26",
"b c #EC9C30",
"n c #B78374",
"m c #C98F7D",
"M c #C79C8B",
"N c #D1AB98",
"B c #D8B5A2",
"V c None",
/* pixels */
"VVV.VVVV",
"VVX. VVV",
"VVo&+VVV",
"VVVNmVVV",
"VVb>:qVV",
"VBx;*hVV",
"n-VwOVjM",
"VVVrtVVV",
"VVv=g1VV",
"VVzep2VV",
"Vsa6d75V",
"Vlu,ky8V",
"Vc0VVi3V",
"Vf<VV94V",
"V@VVVV$V",
"V#VVVVV%"
};
