/* XPM */
static char *squall[] = {
/* columns rows colors chars-per-pixel */
"64 64 198 2 ",
"   c #050405",
".  c #070709",
"X  c #080709",
"o  c #0B0B0C",
"O  c #100D0D",
"+  c #0E0E10",
"@  c #100F11",
"#  c #141315",
"$  c #191516",
"%  c #161619",
"&  c #181619",
"*  c #17181B",
"=  c #1B1B1D",
"-  c #241D1E",
";  c #221716",
":  c #2A201F",
">  c #1D1E22",
",  c #161B24",
"<  c #201F21",
"1  c #1E2024",
"2  c #1E222C",
"3  c #232224",
"4  c #2A2425",
"5  c #242629",
"6  c #292729",
"7  c #27282B",
"8  c #2B2A2C",
"9  c #282827",
"0  c #382726",
"q  c #332C2C",
"w  c #3C2D2C",
"e  c #342725",
"r  c #242B33",
"t  c #2C2E31",
"y  c #262D39",
"u  c #2E3034",
"i  c #27303E",
"p  c #2C323B",
"a  c #333234",
"s  c #3E3231",
"d  c #34363A",
"f  c #393638",
"g  c #3C3B3C",
"h  c #363B3F",
"j  c #42312F",
"k  c #423333",
"l  c #483633",
"z  c #4B3936",
"x  c #443C3B",
"c  c #4B3C3B",
"v  c #533C37",
"b  c #41403F",
"n  c #53403C",
"m  c #58433F",
"M  c #69453E",
"N  c #2C3642",
"B  c #2E3946",
"V  c #3C3E42",
"C  c #323B45",
"Z  c #403F40",
"A  c #3E4044",
"S  c #3D444B",
"D  c #35414D",
"F  c #3C4C5C",
"G  c #394552",
"H  c #434344",
"J  c #4A4343",
"K  c #44464A",
"L  c #484749",
"P  c #4C4C4D",
"I  c #45494D",
"U  c #534643",
"Y  c #5B4946",
"T  c #524E4E",
"R  c #574642",
"E  c #5D5049",
"W  c #444C53",
"Q  c #4C4E52",
"!  c #444E5B",
"~  c #4D5155",
"^  c #4E545A",
"/  c #49545F",
"(  c #535254",
")  c #595656",
"_  c #52575B",
"`  c #53585D",
"'  c #5B5A5B",
"]  c #585758",
"[  c #634A45",
"{  c #634B45",
"}  c #6C534D",
"|  c #64514B",
" . c #7B554D",
".. c #75554B",
"X. c #655B57",
"o. c #735B52",
"O. c #7B5F54",
"+. c #734E46",
"@. c #7C635B",
"#. c #4A5766",
"$. c #545D64",
"%. c #5C5E62",
"&. c #5D6165",
"*. c #5D656C",
"=. c #5A6874",
"-. c #656364",
";. c #696566",
":. c #63666A",
">. c #65696C",
",. c #6D6B6B",
"<. c #676767",
"1. c #656C73",
"2. c #686C70",
"3. c #6D7175",
"4. c #66707A",
"5. c #747373",
"6. c #76797B",
"7. c #8A5F52",
"8. c #815D52",
"9. c #88665B",
"0. c #936C5E",
"q. c #896C61",
"w. c #87726C",
"e. c #997A6D",
"r. c #837674",
"t. c #A77C6C",
"y. c #B07E6D",
"u. c #82807D",
"i. c #AB8778",
"p. c #B88B77",
"a. c #C5907A",
"s. c #7A7F81",
"d. c #757F80",
"f. c #6A7B89",
"g. c #7E8386",
"h. c #7C8488",
"j. c #828383",
"k. c #85898B",
"l. c #8B8C8C",
"z. c #878886",
"x. c #948E89",
"c. c #93918F",
"v. c #8B8E91",
"b. c #8B9195",
"n. c #929292",
"m. c #959A9C",
"M. c #989B9B",
"N. c #959798",
"B. c #B89383",
"V. c #A19F9A",
"C. c #A38D82",
"Z. c #9DA19E",
"A. c #979FA3",
"S. c #9DA1A2",
"D. c #A2A4A2",
"F. c #ACACA6",
"G. c #A7AAAB",
"H. c #ABADAB",
"J. c #A2A6A9",
"K. c #B0ADA8",
"L. c #B6B4AD",
"P. c #A9AEB0",
"I. c #AEB3B4",
"U. c #B4B7B3",
"Y. c #BCBDBC",
"T. c #B7BBB7",
"R. c #D49F88",
"E. c #D8AC94",
"W. c #D9B39B",
"Q. c #D7A58D",
"!. c #ECBB9F",
"~. c #DABCA3",
"^. c #EABAA0",
"/. c #BEC0BF",
"(. c #C2C2BC",
"). c #EAC4A6",
"_. c #F1CAAA",
"`. c #CBCCC6",
"'. c #C7CAC8",
"]. c #C8C9C6",
"[. c #CED2CC",
"{. c #D5D4CD",
"}. c #D1D3D1",
"|. c #DCDBD4",
" X c #DADCD8",
".X c #D3CDC8",
"XX c #DFE1DA",
"oX c #E5E5DC",
"OX c #E0E0D6",
"+X c #ECECE3",
"@X c #EAEAE6",
"#X c #EFF0E5",
"$X c #F2F3E6",
"%X c #F4F4EB",
"&X c #F9FAED",
"*X c #FBFCF4",
"=X c #F7F7F1",
"-X c None",
/* pixels */
"-X-X-X-X-X-X-X-X-X-X-X-X-X-X-X-X-Xx c c | R c c -X-X-X-X-X-X-X-X-X-X-X-X-X-X-X-X-X-X-X-X-X-X-X-X-X-X-X-X-X-X-X-X-X-X-X-X-X-X-X-X",
"-X-X-X-X-X-X-X-X-X-X-X-X-X-X-X-Xm Y } @.o.@.[ Y | s -X-X-X-X-X-X-X-X-X-X-X-X-X-X-X-X-X-X-X-X-X-X-X-X-X-X-X-X-X-X-X-X-X-X-X-X-X-X",
"-X-X-X-X-X-X-X-X-X-X-X-X-X-X-X-X-Xm } M R v c s k c 0 -X-X-X-X-X-X-X-X-X-X-X-X-X-X-X-X-X-X-X-X-X-X-X-X-X-X-X-X-X-X-X-X-X-X-X-X-X",
"-X-X-X-X-X-X-X-X-X-X-X-X-X-X-X-X| m z v v k s k c k 0 O -X-X-X-X-X-X-X-X-X-X-X-X-X-X-X-X-X-X-X-X-X-X-X-X-X-X-X-X-X-X-X-X-X-X-X-X",
"-X-X-X-X-X-X-X-X-X-X-X-X-X-X-X-Xj z 9.i.O.M s k l w { e - -X-X-X-X-X-X-X-X-X-X-X-X-X-X-X-X-X-X-X-X-X-X-X-X-X-X-X-X-X-X-X-X-X-X-X",
"-X-X-X-X-X-X-X-X-X-X-X9 1 -X-X-Xz j  .O. .9.i.i.l w  .; $ -X-X-X-X-X-X-X-X-X-X-X-X-X-X-X-X-X-X-X-X-X-X-X-X-X-X-X-X-X-X-X-X-X-X-X",
"-X3 g ( -X-X-Xt H d < -X-Xz.-X-Xz j w e.t.~.W.!. .v : -X-X-X-X-X-X-X-X-X-X-X-X-X-X-X-X-X-X-X-X-X-X-X-X-X-X-X-X-X-X-X-X-X-X-X-X-X",
"T 6 9 P ' x t d t < = 3 ;.( -Xj.Y 0 e o.E.t.W.!.p.+.0 -X-X-X-X-X-X-X-X-X-X-X-X-X-X-X-X-X-X-X-X-X-X-X-X-X-X-X-X-X-X-X-X-X-X-X-X-X",
"-X-X: = = 5 9 3 5 & % d 5 Z ;.k.;.E c -XE i.E._.q.+.M l.K.T.-X-X-X-X-X-X-X-X-X-X-X-X-X-X-X-X-X-X-X-X-X-X-X-X-X-X-X-X-X-X-X-X-X-X",
"-X-X-X-X-X+ = # + # = > 8 ' j.l.c.,.,.H.K.z.9.v M a.0.S.$X&X+X`.-X-X-X-X-X-X-X-X-X-X-X-X-X-X-X-X-X-X-X-X-X-X-X-X-X-X-X-X-X-X-X-X",
"-X-X-X-X-X-X_ 9 % = 8 d :.v.S.6.c.[.OX%X#XU.x  .Q.).a.n (.|.oX+X|.T a 8 -X-X-X-X-X-X-X-X-X-X-X-X-X-X-X-X-X-X-X-X-X-X-X-X-X-X-X-X",
"-X) -X-X-X@ t % # * -X-X3.v.J.j.s.|.$XOXOXw.} 8.~.).R.9.r.`.+X$XOX,.V Q I K V V -X-X-X-X-X-X-X-X-X-X-X-X-X-X-X-X-X-X-X-X-X-X-X-X",
"-X;.-X-X= @ 4 q = 3 9 -X-X-X-XZ -.M.].|.H.b q.q.7.p.u.O.q N.V.(.(.n.( 4.g.M.J.v.6.:.$.&.:.-X-X-X-X-X-X-X-X-X-X-X-X-X-X-X-X-X-X-X",
"u.F.L.-X-X< : 9 L = a -X-X-X-X= # d L L H > E p.i.i.X.q = # 6 g q a 5 :.b.J.I.P.S.A.A.m.S.S.N.b.n.-X-X-X-X-X-X-X-X-X-X-X-X-X-X-X",
"-XD.F.z.-X4 = * < t 3 -X-X-XT 5 % # # b f g g e.x.E q = = - 3 9 < 3 ( Q A.I.Y.U.P.P.Y.'.XX%X&X%X@X}.].H.A.-X-X-X-X-X-X-X-X-X-X-X",
"-X-X-X-X-XH f t < a # -X< 6 % @ O X 3 4 g 8 b p.e.m a # d a = f = = a Q $.h.A.G.I.U.'.@X=X*X*X*X*X*X*X*X=X@X X}.'.-X-X-X-X-X-X-X",
"-X-X-X-X-X-X6 % 9 = * O = 6 @ + + # f - < a 5.+.9.V.,.3 9 I * = a < $ a -X-X-X-X-X-X-XL..X|.@X#X%X*X*X*X*X*X%X#X@X@X}./.-X-X-X-X",
"-X-X-X-X-X-XV 6 3 # t 3 9 a & # @ # d $ 8 T A.4 A 6.( g 6 % o X @ & # # > -X-X-X-X-X-X-X-X-X-X-X-X-X-X@X X-X-X-X-X-X-X-X-X-X-X-X",
"-X-X-X-X-X-X1 5 # 9 1 % > * t = X > V 3 K D _ a ' d.Q 8 g , X # 7 < # * = 3 -X-X-X-X-X-X-X-X-X-X-X-X-X-X-X-X-X-X-X-X-X-X-X-X-X-X",
"-X-X-X-X-X-X= 2 1 8 * 7 r d -X-X-X7 > < H #.~.%.I ^ I 3 3 3 @ @ t u > # = 8 -X-X-X-X-X-X-X-X-X-X-X-X-X-X-X-X-X-X-X-X-X-X-X-X-X-X",
"-X-X-X-X-X-X-Xh r r p W -X-X-X-X, > t a d S '.N.g.g.~ 3 1 1 # 3 o & * & 6 g < 5 -X-X-X-X-X-X-X-X-X-X-X-X-X-X-X-X-X-X-X-X-X-X-X-X",
"-X-X-X-X-X-X-X-Xh B -X-X-X-X-X-X= = 9 < d h 3.z.Z.h.d.9 3 7 + 2 -X@ # > a 3 Z 2.-X-X-X-X-X-X-X-X-X-X-X-X-X-X-X-X-X-X-X-X-X-X-X-X",
"-X-X-X-X-X-X-X-X-X-X-X-X-X-X-X-X-X3 d = V S %.^ *.` k.8 = 6 % t t -X% & * = 9 ! -X-X-X-X-X-X-X-X-X-X-X-X-X-X-X-X-X-X-X-X-X-X-X-X",
"-X-X-X-X-X-X-X-X-X-X-X-X-X-X-X-X-XV u t Q $.%.$.` 1.,.u * 7 * r -X5 Z ( Z d S #.-X-X-X-X-X-X-X-X-X-X-X-X-X-X-X-X-X-X-X-X-X-X-X-X",
"-X-X-X-X-X-X-X-X-X-X-X-X-X-X-X-Xd V 3.M.D.l.j.4.*.c.-.& # -X-X-X# = H L < 7 #.-X-X-X-X-X-X-X-X-X-X-X-X-X-X-X-X-X-X-X-X-X-X-X-X-X",
"-X-X-X-X-X-X-X-X-X-X-X-X-X-X-Xu A g.k.m.H.J.h.d.1.4.` S t -X-X9 5 g d = 1 F -X-X-X-X-X-X-X-X-X-X-X-X-X-X-X-X-X-X-X-X-X-X-X-X-X-X",
"-X-X-X-X-X-X-X-X-X-X-X-X-X-X`.>._ _ ` ( ,.5.j.v.v.1.W _ V -X< 5 d A 6 > C p -X-X-X-X-X-X-X-X-X-X-X-X-X-X-X-X-X-X-X-X-X-X-X-X-X-X",
"-X-X-X-X-X-X-X-X-X-X-X-X$X&X`.5.k - < U 5.;.;.4 Q &.K Q l.D.a V g K 1 r C -X-X-X-X-X-X-X-X-X-X-X-X-X-X-X-X-X-X-X-X-X-X-X-X-X-X-X",
"-X-X-X-X-X-X-X-X-X-X-XoX&X$XU.t k Y * x X.3.3.J J $ a a &.G.T < a 9 r C W -X-X-X-X-X-X-X-X-X-X-X-X-X-X-X-X-X-X-X-X-X-X-X-X-X-X-X",
"-X-X-X-X-X-X-X-X-X-X-X{.oX{.v.n s Y c - L T q k c Z U < :.' t Z 7 5 D f.-X-X-X-X-X-X-X-X-X-X-X-X-X-X-X-X-X-X-X-X-X-X-X-X-X-X-X-X",
"-X-X-X-X-X-X-X-X-X-X-XY.H.H.' : < $ k z 0 3 0 e - s Y s >.f 7 < a S h.d.-X-X-X-X-X-X-X-X-X-X-X-X-X-X-X-X-X-X-X-X-X-X-X-X-X-X-X-X",
"-X-X-X-X-X-X-X-X-X-X-X6.m.<.9 # @ @ < e Y c 9 4 e = < < K Z > # 7 >.-X-X-X-X-X-X-X-X-X-X-X-X-X-X-X-X-X-X-X-X-X-X-X-X-X-X-X-X-X-X",
"-X-X-X-X-X-X-X-X-X-X-X-X-X= = % # = - f g - - q [ R 3 f Q 8 = , A l.-X-X-X-X-X-X-X-X-X-X-X-X-X-X-X-X-X-X-X-X-X-X-X-X-X-X-X-X-X-X",
"-X-X-X-X-X-X-X-X-X-X-X-X= = = % = = 9 9 9 9 = $ < 3 - = u 3 > a ( -X-X-X-X-X-X-X-X-X-X-X-X-X-X-X-X-X-X-X-X-X-X-X-X-X-X-X-X-X-X-X",
"-X-X-X-X-X-X-X-X-X-X-Xh 9 = = # < @ o * $ # * = 9 5 = > > 5 t a Q -X-X-X-X-X-X-X-X-X-X-X-X-X-X-X-X-X-X-X-X-X-X-X-X-X-X-X-X-X-X-X",
"-X-X-X-X-X-X-X-X-X*.^ g 3 # < # 4 * #     X = = d a * % % * = d -X-X-X-X-X-X-X-X-X-X-X-X-X-X-X-X-X-X-X-X-X-X-X-X-X-X-X-X-X-X-X-X",
"-X-X-X-X-X-X-X-X*.^ u < = > 9 = < # 3 +     X % < H 8 * # X   -X-X-X-X-X-X-X-X-X-X-X-X-X-X-X-X-X-X-X-X-X-X-X-X-X-X-X-X-X-X-X-X-X",
"-X-X-X-X-X-X4.*.H 8 = = = t h < = # * @ -X-X  + 9 t 8 3 # # X -X-X-X-X-X-X-X-X-X-X-X-X-X-X-X-X-X-X-X-X-X-X-X-X-X-X-X-X-X-X-X-X-X",
"-X-X-X-X` *.~ h 9 : = = : b 8 < 5 # = # -X-X-X. = t 5 = * # o -X-X-X-X-X-X-X-X-X-X-X-X-X-X-X-X-X-X-X-X-X-X-X-X-X-X-X-X-X-X-X-X-X",
"-X-X-X-XV K u 3 = = = 3 a b = 3 @ @ # = = -X-X+ o * g - * % > + -X-X-X-X-X-X-X-X-X-X-X-X-X-X-X-X-X-X-X-X-X-X-X-X-X-X-X-X-X-X-X-X",
"-X-X-X-X-X6 1 = = < 9 b L 3 = * o * * 2 1 -X-X-Xy @ 7 a = * 9 8 -X-X-X-X-X-X-X-X-X-X-X-X-X-X-X-X-X-X-X-X-X-X-X-X-X-X-X-X-X-X-X-X",
"-X-X-X-X-X-X% = 9 g ( P 9 = 3 # f # # u -X-X-X-XC , * 8 9 - , d -X-X-X-X-X-X-X-X-X-X-X-X-X-X-X-X-X-X-X-X-X-X-X-X-X-X-X-X-X-X-X-X",
"-X-X-X-X-X-X< g ( ' L 3 * < 1 . $ = # 7 5 -X-X-XN 2 @ 8 9 9 = a a -X-X-X-X-X-X-X-X-X-X-X-X-X-X-X-X-X-X-X-X-X-X-X-X-X-X-X-X-X-X-X",
"-X-X-X-X-Xt ' 5.,.L 3 * 3 t 9 # 1 # # p -X-X-X-Xi N @ 7 a 8 9 3 A -X-X-X-X-X-X-X-X-X-X-X-X-X-X-X-X-X-X-X-X-X-X-X-X-X-X-X-X-X-X-X",
"-X-X-X-X-X-.6.,.V 9 3 u S 7 = % t # % t -X-X-X-X-XD * < a a 9 = A -X-X-X-X-X-X-X-X-X-X-X-X-X-X-X-X-X-X-X-X-X-X-X-X-X-X-X-X-X-X-X",
"-X-X-X-X-X] ' g 6 6 h ` G . 3 * # @ # p 7 -X-X-X-X1 p < a a 8 = t 1 -X-X-X-X-X-X-X-X-X-X-X-X-X-X-X-X-X-X-X-X-X-X-X-X-X-X-X-X-X-X",
"-X-X-X-X-XH g 8 u A &.=.-XX 3 * % # % i d -X-X-X-X-X2 6 a f a 3 3 9 -X-X-X-X-X-X-X-X-X-X-X-X-X-X-X-X-X-X-X-X-X-X-X-X-X-X-X-X-X-X",
"-X-X-X-X-X-Xa A W *.-X-X-Xo 1 = = # * D r -X-X-X-X-X5 = t g g 8 3 1 -X-X-X-X-X-X-X-X-X-X-X-X-X-X-X-X-X-X-X-X-X-X-X-X-X-X-X-X-X-X",
"-X-X-X-X-X-XA $.=.-X-X-X-Xo 9 3 3 = 1 F -X-X-X-X-X-X-X2 < d H g 9 3 -X-X-X-X-X-X-X-X-X-X-X-X-X-X-X-X-X-X-X-X-X-X-X-X-X-X-X-X-X-X",
"-X-X-X-X-X-X-X*.4.-X-X-X-X# d 8 8 1 r D -X-X-X-X-X-X-X, , < x T V 9 -X-X-X-X-X-X-X-X-X-X-X-X-X-X-X-X-X-X-X-X-X-X-X-X-X-X-X-X-X-X",
"-X-X-X-X-X-X-X-X-X-X-X-X-X# b a 8 1 N > -X-X-X-X-X-X-X-X* * a ] ) a # -X-X-X-X-X-X-X-X-X-X-X-X-X-X-X-X-X-X-X-X-X-X-X-X-X-X-X-X-X",
"-X-X-X-X-X-X-X-X-X-X-X-X-X3 J g 1 5 2 . -X-X-X-X-X-X-X-X@ = = ( -.P 3 -X-X-X-X-X-X-X-X-X-X-X-X-X-X-X-X-X-X-X-X-X-X-X-X-X-X-X-X-X",
"-X-X-X-X-X-X-X-X-X-X-X-X-XL ' 8 * 3 * d -X-X-X-X-X-X-X-X-X3 % 6 ;.;.6 $ -X-X-X-X-X-X-X-X-X-X-X-X-X-X-X-X-X-X-X-X-X-X-X-X-X-X-X-X",
"-X-X-X-X-X-X-X-X-X-X-X-X-Xg a * 1 > a , -X-X-X-X-X-X-X-X-X> 2 % 3 ( a * > -X-X-X-X-X-X-X-X-X-X-X-X-X-X-X-X-X-X-X-X-X-X-X-X-X-X-X",
"-X-X-X-X-X-X-X-X-X-X-X-X-Xo # & > = * @ -X-X-X-X-X-X-X-X-X-X> , # 3 9 # = a -X-X-X-X-X-X-X-X-X-X-X-X-X-X-X-X-X-X-X-X-X-X-X-X-X-X",
"-X-X-X-X-X-X-X-X-X-X-X-X-X-X# & * % * 1 -X-X-X-X-X-X-X-X-X-X2 N * 3 8 # # t -X-X-X-X-X-X-X-X-X-X-X-X-X-X-X-X-X-X-X-X-X-X-X-X-X-X",
"-X-X-X-X-X-X-X-X-X-X-X-X-Xo # 1 = # , > -X-X-X-X-X-X-X-X-X-XG F 2 % 3 = * 9 -X-X-X-X-X-X-X-X-X-X-X-X-X-X-X-X-X-X-X-X-X-X-X-X-X-X",
"-X-X-X-X-X-X-X-X-X-X-X-X-X: d 9 * % = 2 -X-X-X-X-X-X-X-X-X-X-X! r * 3 3 = 3 > -X-X-X-X-X-X-X-X-X-X-X-X-X-X-X-X-X-X-X-X-X-X-X-X-X",
"-X-X-X-X-X-X-X-X-X-X-X-X-X,.' 8 = % = r -X-X-X-X-X-X-X-X-X-X-X-XS , - 9 = 3 = -X-X-X-X-X-X-X-X-X-X-X-X-X-X-X-X-X-X-X-X-X-X-X-X-X",
"-X-X-X-X-X-X-X-X-X-X-X-X-XH Q u = % * p -X-X-X-X-X-X-X-X-X-X-X-Xp r = 9 = < 3 -X-X-X-X-X-X-X-X-X-X-X-X-X-X-X-X-X-X-X-X-X-X-X-X-X",
"-X-X-X-X-X-X-X-X-X-X-X-X-Xf b f & = y #.-X-X-X-X-X-X-X-X-X-X-X-X-Xi > 9 3 : 1 -X-X-X-X-X-X-X-X-X-X-X-X-X-X-X-X-X-X-X-X-X-X-X-X-X",
"-X-X-X-X-X-X-X-X-X-X-X-X-X7 a h > r =.-X-X-X-X-X-X-X-X-X-X-X-X-X-Xr 3 5 8 9 6 -X-X-X-X-X-X-X-X-X-X-X-X-X-X-X-X-X-X-X-X-X-X-X-X-X",
"-X-X-X-X-X-X-X-X-X-X-X-X-X1 8 u 7 y ! -X-X-X-X-X-X-X-X-X-X-X-X-X-Xr 3 5 f a 8 -X-X-X-X-X-X-X-X-X-X-X-X-X-X-X-X-X-X-X-X-X-X-X-X-X",
"-X-X-X-X-X-X-X-X-X-X-X-X9 : 9 = 3 5 -X-X-X-X-X-X-X-X-X-X-X-X-X-X-Xi 1 9 A L 8 V -X-X-X-X-X-X-X-X-X-X-X-X-X-X-X-X-X-X-X-X-X-X-X-X"
};
