/* XPM */
static char *trunks[] = {
/* columns rows colors chars-per-pixel */
"64 64 214 2 ",
"   c #3A2A16",
".  c #332518",
"X  c #0D2D2A",
"o  c #0E2825",
"O  c #122D2C",
"+  c #182829",
"@  c #19312E",
"#  c #142E30",
"$  c #0E3532",
"%  c #0E3A37",
"&  c #0F3C39",
"*  c #123433",
"=  c #133C3B",
"-  c #143735",
";  c #383828",
":  c #2F3835",
">  c #44321C",
",  c #4C391E",
"<  c #493518",
"1  c #523D1E",
"2  c #463D25",
"3  c #523E21",
"4  c #633F23",
"5  c #12413E",
"6  c #26463D",
"7  c #354334",
"8  c #3A402D",
"9  c #5A431D",
"0  c #76451B",
"q  c #6B4F1F",
"w  c #494326",
"e  c #594825",
"r  c #4C4B38",
"t  c #664C25",
"y  c #685224",
"u  c #765824",
"i  c #7A4D2B",
"p  c #70622E",
"a  c #463C4E",
"s  c #144441",
"d  c #1B4343",
"f  c #154946",
"g  c #154D4A",
"h  c #1C4C4C",
"j  c #194847",
"k  c #16514E",
"l  c #1A524F",
"z  c #175451",
"x  c #1B5553",
"c  c #1A5956",
"v  c #1B5D5A",
"b  c #264B47",
"n  c #255D56",
"m  c #325549",
"M  c #1C625E",
"N  c #31635C",
"B  c #1C6460",
"V  c #595749",
"C  c #4C5253",
"Z  c #795949",
"A  c #72574A",
"S  c #5B695A",
"D  c #756457",
"F  c #7C6C41",
"G  c #67586E",
"H  c #695A73",
"J  c #6A5975",
"K  c #6D6576",
"L  c #77667A",
"P  c #6D696E",
"I  c #575160",
"U  c #874918",
"Y  c #934B14",
"T  c #9A4E14",
"R  c #99561B",
"E  c #A45213",
"W  c #B65A11",
"Q  c #B95C11",
"!  c #B4621C",
"~  c #815622",
"^  c #895538",
"/  c #925F3F",
"(  c #8A6620",
")  c #8D6922",
"_  c #876627",
"`  c #946E22",
"'  c #9A6128",
"]  c #9B7421",
"[  c #93732D",
"{  c #9E792E",
"}  c #977127",
"|  c #8D6D33",
" . c #A37A21",
".. c #A27B2A",
"X. c #AF6A29",
"o. c #C6681A",
"O. c #DB751E",
"+. c #D1701D",
"@. c #C57428",
"#. c #D77C27",
"$. c #C26E22",
"%. c #E67F24",
"&. c #895E46",
"*. c #876844",
"=. c #976A4D",
"-. c #956F57",
";. c #A97655",
":. c #B27955",
">. c #B67B55",
",. c #A76F4B",
"<. c #987969",
"1. c #8A6C74",
"2. c #997673",
"3. c #85726C",
"4. c #A67B6D",
"5. c #AD842E",
"6. c #B68A2E",
"7. c #B58B31",
"8. c #AA8230",
"9. c #C49632",
"0. c #EA8528",
"q. c #F78928",
"w. c #D4A234",
"e. c #BE835C",
"r. c #9C8A79",
"t. c #A88468",
"y. c #BA8763",
"u. c #BA916B",
"i. c #B79675",
"p. c #A78D71",
"a. c #C3855D",
"s. c #CA885C",
"d. c #C3864B",
"f. c #CA8E64",
"g. c #D28E61",
"h. c #D69163",
"j. c #D89768",
"k. c #C39C77",
"l. c #D79E73",
"z. c #CC9569",
"x. c #C3A27F",
"c. c #CEA57E",
"v. c #D6A57A",
"b. c #E2A678",
"n. c #5F7993",
"m. c #756383",
"M. c #7B6A87",
"N. c #787381",
"B. c #826E89",
"V. c #85778B",
"C. c #857393",
"Z. c #8A7599",
"A. c #8E799D",
"S. c #877A95",
"D. c #8C758F",
"F. c #927DA2",
"G. c #947CA9",
"H. c #8F79A0",
"J. c #6D879B",
"K. c #8C8598",
"L. c #928B9E",
"P. c #B79A81",
"I. c #A5979C",
"U. c #A48A91",
"Y. c #9681A6",
"T. c #9B85AC",
"R. c #9789A4",
"E. c #9D93AD",
"W. c #9A94A6",
"Q. c #9F88B1",
"!. c #9F94B1",
"~. c #A18BB3",
"^. c #A68EB9",
"/. c #A799BA",
"(. c #AAA3BC",
"). c #AEAEB3",
"_. c #B2A6A9",
"`. c #C7A482",
"'. c #D6AD86",
"]. c #DCB58C",
"[. c #DDB88E",
"{. c #D4B294",
"}. c #E5AE80",
"|. c #ECBA8C",
" X c #E6B68A",
".X c #E8BD92",
"XX c #C7B8B2",
"oX c #EDC295",
"OX c #F3C597",
"+X c #F3C698",
"@X c #F4C899",
"#X c #AE98C2",
"$X c #B59BCA",
"%X c #BA9FD0",
"&X c #AEA5C1",
"*X c #B6ADCC",
"=X c #B8ACCE",
"-X c #B4A5C9",
";X c #B9B3CE",
":X c #BBA3D2",
">X c #BBADD2",
",X c #BBB4D2",
"<X c #BEB9D4",
"1X c #C1A9D8",
"2X c #C3B5DC",
"3X c #C2BBDA",
"4X c #C0B9D6",
"5X c #C9BCE2",
"6X c #CCC4E6",
"7X c #CFCAEA",
"8X c #CEC7E9",
"9X c #D0CBEB",
"0X c #D2CAC7",
"qX c None",
/* pixels */
"qXqXqXqXqXqXqXqXqXqXqXqXqXqXqXqXqXqXqXqXqXqXqXqXqXqXqXqXqXqXqXqXqXqXqXqXqXqXqXqXqXqXqXqXqXqXqXqXqXqXqXqXqXqXqXqXqXqXqXqXqXqXqXqX",
"qXqXqXqXqXqXqXqXqXqXqXqXqXqXqXqXqXqXqXqXqXqXqXqXqXqXqXqXqXqXqXqXqXqXqXqXqXqXqXqXqXqXqXqXqXqXqXqXqXqXqXqXqXqXqXqXqXqXqXqXqXqXqXqX",
"qXqXqXqXqXqXqXqXqXqXqXqXqXqXqXqXqXqXqXqXqXqXqXqXqXqXqXqXqXqXqXqXqXqXqXqXqXqXqXqXqXqXqXqXqXqXqXqXqXqXqXqXqXqXqXqXqXqXqXqXqXqXqXqX",
"qXqXqXqXqXqXqXqXqXqXqXqXqXqXqXqXqXqXqXqXqXqXqXqXqXqXqXqXqXqXqXqXqXqXqXqXqXqXqXqXqXqXqXqXqXqXqXqXqXqXqXqXqXqXqXqXqXqXqXqXqXqXqXqX",
"qXqXqXqXqXqXqXqXqXqXqXqXqXqXqXqXqXqXqXqXqXqXqXqXqXqXqXqXqXqXqXqXqXqXqXqXqXqXqXqXqXqXqXqXqXqXqXqXqXqXqXqXqXqXqXqXqXqXqXqXqXqXqXqX",
"qXqXqXqXqXqXqXqXqXqXqXqXqXqXqXqXqXqXqXqXqXqXqXqXqXqXqXqXqXqXqXqXqXqXqXqXqXqXqXqXqXqXqXqXqXqXqXqXqXqXqXqXqXqXqXqXqXqXqXqXqXqXqXqX",
"qXqXqXqXqXqXqXqXqXqXqXqXqXqXqXqXqXqXqXqXqXqXqXqXqXqXqXR.(.E.(.&X/.(.*X;XqXqXqXqXqXqXqXqXqXqXqXqXqXqXqXqXqXqXqXqXqXqXqXqXqXqXqXqX",
"qXqXqXqXqXqXqXqXqXqXqXqXqXqXqXqXqXK.K.qXqXP K W.(.;X*X*X,X*X*X;X<X<X<X*X5X6X6X*XqXqXqXqXqXqXqXqXqXqXqXqXqXqXqXqXqXqXqXqXqXqXqXqX",
"qXqXqXqXqXqXqXqXqXqXqXqXqXqXqXqXa R.K.I N.L.,X*X4X=X=X=X-X-X2X8X7X7X<X<X=X#X2X9X9X3X/.qXqXqXqXqXqXqXqXqXqXqXqXqXqXqXqXqXqXqXqXqX",
"qXqXqXqXqXqXqXqXqXqXqXqXqXqXqXqXC N.N.K E.W.L.&X=X=X3X9X8X9X<X1X8X7X7X7X9X9X(.9X9X9X8X-XF.qXqXqXqXqXqXqXqXqXqXqXqXqXqXqXqXqXqXqX",
"qXqXqXqXqXqXqXqXqXqXqXqXqXqXqXqXK K.H L.R.K K.-X=X-X*X*X4X8X9X9X6X7X7X6X2X9X6X5X5X5X3X2X1XZ.qXqXqXqXqXqXqXqXqXqXqXqXqXqXqXqXqXqX",
"qXqXqXqXqXqXqXqXqXqXqXqXqXqXqX<X,X/.Q.M.L.N.E./.6X9X4X6X9X9X6X4X7X7X6X2X$X:X3X%X#X~.^.(.$X:XZ.qXqXqXqXqXqXqXqXqXqXqXqXqXqXqXqXqX",
"qXqXqXqXqXqXqXqXqXqXqXqXqXK.3X7X>X#X#XT.S.E.G H L ,X<X:X1X$X1X~.:X>X%X#X^.~.~.T.F.%X~.F.T.F.#XJ qXqXqXqXqXqXqXqXqXqXqXqXqXqXqXqX",
"qXqXqXqXqXqXqXqXqXqXqXqXqXW.*X=X*X3XF.J J J 1.3.2.2.E.A.%XG.^.1XF.1X^.~.F.G.F.Q.Q.A.F.T.^.F.T.F.qXqXqXqXqXqXqXqXqXqXqXqXqXqXqXqX",
"qXqXqXqXqXqXqXqXqXqXqXqXqXL.(.(./.E.-.4.`.+XOX+X|.j.1.3.~.H G.#XA.^.T.F.^.C.A.1XQ.M.T.T.^.B.F.Q.qXqXqXqXqXqXqXqXqXqXqXqXqXqXqXqX",
"qXqXqXqXqXqXqXqXqXqXqXqXqXK.K.W.R.U.a.'.+X+XOX+X+XoX2.,.C.D.B.C.G.C.%XJ $Xm.Z.1XT.Z.G.H.~.M.A.Z.qXqXqXqXqXqXqXqXqXqXqXqXqXqXqXqX",
"qXqXqXqXqXqXqXqXqXqXqXqXqXqXM.K.V.W.=.U.`.OXOXOX+X+X<.f.K Z.2.J G.H %Xa #Xm.F.$XM.H.Z.T.~.M.M.m.qXqXqXqXqXqXqXqXqXqXqXqXqXqXqXqX",
"qXqXqXqXqXqXqXqXqXqXqXqXqXqXqXm.P N.D i._.I.[.OX+X+X<. XL D.;.m.A.&.G.Z B.H.~.Z.Z.C.H.F.Z.Z.C.qXqXqXqXqXqXqXqXqXqXqXqXqXqXqXqXqX",
"qXqXqXqXqXqXqXqXqXqXqXqXqXqXqXqXqXqXD p.P.J._.`.+XoXp.c.D 4.1.L.M.D.1.Z =.B.U.4.;.1.^.J Z.qXqXqXqXqXqXqXqXqXqXqXqXqXqXqXqXqXqXqX",
"qXqXqXqXqXqXqXqXqXqXqXqXqXqXqXqXqXqXqXt.[.C ).I.+X.X`.r.n.n.).0XXXs.h.h.,.y.,.:.=.;.a qXqXqXqXqXqXqXqXqXqXqXqXqXqXqXqXqXqXqXqXqX",
"qXqXqXqXqXqXqXqXqXqXqXqXqXqXqXqXqXqXqXqXP.].i.k.].+X+X Xk.x.i.u.f.s.h.h.f.:.&.j.g.=.qXqXqXqXqXqXqXqXqXqXqXqXqXqXqXqXqXqXqXqXqXqX",
"qXqXqXqXqXqXqXqXqXqXqXqXqXqXqXqXqXqXqXqXp.oXOX.Xi.].]. XOXOXoXoXh.h.h.s.f.>.a.:.qXqXqXqXqXqXqXqXqXqXqXqXqXqXqXqXqXqXqXqXqXqXqXqX",
"qXqXqXqXqXqXqXqXqXqXqXqXqXqXqXqXqXqXqXqXqXqXk.'.oXoXOXOXOXOXoXj.e.;.qXqXqXqXqXqXqXqXqXqXqXqXqXqXqXqXqXqXqXqXqXqXqXqXqXqXqXqXqXqX",
"qXqXqXqXqXqXqXqXqXqXqXqXqXqXqXqXqXqXqXqXqXqXqXqXqXF ]. Xk.e.e.f.h.*.qXqXqXqXqXqXqXqXqXqXqXqXqXqXqXqXqXqXqXqXqXqXqXqXqXqXqXqXqXqX",
"qXqXqXqXqXqXqXqXqXqXqXqXqXqXqXqXqXqXqXqXqXd j m P.]. X].c.x.oXb.:.h.a.A o O qXqXqXqXqXqXqXqXqXqXqXqXqXqXqXqXqXqXqXqXqXqXqXqXqXqX",
"qXqXqXqXqXqXqXqXqXqXqXqXqXqXqXb v v B B v c l c P oX+X+XoX].v.v.u.}.].l.@ % O $ $ % % qXqXqXqXqXqXqXqXqXqXqXqXqXqXqXqXqXqXqXqXqX",
"qXqXqXqXqXqXqXqXqXqXqXqXqXqXp. X3.M B B B B v B M N r.oXoXoXOXOXOX+XOXv.7 5 = $ % % = : qXqXqXqXqXqXqXqXqXqXqXqXqXqXqXqXqXqXqXqX",
"qXqXqXqXqXqXqXqXqXqXqXqXqX X@X@Xb.;.n B c v B B B M M N r.v.b.l.:.b.j.D v M g % % O $ r g.,.qXqXqXqXqXqXqXqXqXqXqXqXqXqXqXqXqXqX",
"qXqXqXqXqXqXqXqXqXqXqXi..X+Xb.j.h.h.=.c s s B B M M M M M B S t.>.;.C B B B k = % O r s.g.h.g.:.qXqXqXqXqXqXqXqXqXqXqXqXqXqXqXqX",
"qXqXqXqXqXqXqXqXqXqX].+X+X|.h.h.s.^ ^ * $ 5 v B z 5 5 g M M M M N B B B B B f = % C OXOX|.b.g.g.h.:.qXqXqXqXqXqXqXqXqXqXqXqXqXqX",
"qXqXqXqXqXqXqXqX`.+X+X@X+Xv.h.h.^ qX@ * f B B B M x - 5 5 g M M B B B B z 5 = f % V .X@X@X@X|.h.h.h.,.qXqXqXqXqXqXqXqXqXqXqXqXqX",
"qXqXqXqXqXqXqXi.@X+XOXb.j.h.a.qXqXqXqXs f v B B M M x 5 5 X 5 f k l k & * = = $ @ qXqXqX`.'.'.v.j.h.g.qXqXqXqXqXqXqXqXqXqXqXqXqX",
"qXqXqXqXqXqXqX+XOX@X+X X.X].i.qXqXqXqXqX# d n b 6 7 : ; ; 8 : 2 w u 2 ; 2 2 3 ; qXqXqXi j.v.+XOXb.h.h.*.qXqXqXqXqXqXqXqXqXqXqXqX",
"qXqXqXqXqXqXqXy.h.l.b.OX+XoXf.X.#.i.[.k.<.4 X.' ~ i | | ' $.U U ! o.U 0 0 0 0 t.c.;.X.q.0.! ' g.j.g.qXqXqXqXqXqXqXqXqXqXqXqXqXqX",
"qXqXqXqXqXqXqXqXqX;.a.j.z.d.o.#.@.'.OXOX.XS s v 5 x B z t ! T ; $ @ Y W ; % o V @X|.,.o.o.W Q / >.qXqXqXqXqXqXqXqXqXqXqXqXqXqXqX",
"qXqXqXqXqXqXqXqXqXqXqXqXqXY T i a.j.b.b.e.N h B h B B 5 @.Y E c - $ Y +.Y % * % ;.h.:.T E 0 Y qXqXqXqXqXqXqXqXqXqXqXqXqXqXqXqXqX",
"qXqXqXqXqXqXqXqXqXqXqXqXqXqXqXqXqX:.:.V d M c v c B c y #.Y U B * # Y $.Q : % % 7 >.qXqXqXqXqXqXqXqXqXqXqXqXqXqXqXqXqXqXqXqXqXqX",
"qXqXqXqXqXqXqXqXqXqXqXqXqXqXqXqXqXqXj v d B M M M B m 0.$.E ~ M * * T X.o.U % g % qXqXqXqXqXqXqXqXqXqXqXqXqXqXqXqXqXqXqXqXqXqXqX",
"qXqXqXqXqXqXqXqXqXqXqXqXqXqXqXqXqXqXc B x M B B B M @.#.W W ~ B * + o.! +.W @ M g # qXqXqXqXqXqXqXqXqXqXqXqXqXqXqXqXqXqXqXqXqXqX",
"qXqXqXqXqXqXqXqXqXqXqXqXqXqXqXqXqXd c B B B B B M X.q.Q o.W Y f $ i 0.%.o.Q e B k + qXqXqXqXqXqXqXqXqXqXqXqXqXqXqXqXqXqXqXqXqXqX",
"qXqXqXqXqXqXqXqXqXqXqXqXqXqXqXqXb c h B B B B B | q.+.W o.W W * ; 0.q.0.W Q 0 B f o qXqXqXqXqXqXqXqXqXqXqXqXqXqXqXqXqXqXqXqXqXqX",
"qXqXqXqXqXqXqXqXqXqXqXqXqXqXqXqXM z f B B B B n ,.X.W W Q W W ; @.q.q.#.W W Y B * $ # qXqXqXqXqXqXqXqXqXqXqXqXqXqXqXqXqXqXqXqXqX",
"qXqXqXqXqXqXqXqXqXqXqXqXqXqXqXd B g = B B B B B B B e Q Q W W ~ F F | R W W U z $ % % qXqXqXqXqXqXqXqXqXqXqXqXqXqXqXqXqXqXqXqXqX",
"qXqXqXqXqXqXqXqXqXqXqXqXqXqXqXd B z % z B B B B B c 5 b 7 r 2 r B B B v n n M s % % % qXqXqXqXqXqXqXqXqXqXqXqXqXqXqXqXqXqXqXqXqX",
"qXqXqXqXqXqXqXqXqXqXqXqXqXqXn j g c B z B B B v g j g = b x h h l g v B B B M c % & $ qXqXqXqXqXqXqXqXqXqXqXqXqXqXqXqXqXqXqXqXqX",
"qXqXqXqXqXqXqXqXqXqXqXqXqXh B v h $ z B B B M c z & 5 x h B c z B c 5 5 g z c 5 * % o + qXqXqXqXqXqXqXqXqXqXqXqXqXqXqXqXqXqXqXqX",
"qXqXqXqXqXqXqXqXqXqXqXqXv d B B B = $ % 5 s 5 & - j = qXqX5 c z d k v v l g s 5 = * $ * qXqXqXqXqXqXqXqXqXqXqXqXqXqXqXqXqXqXqXqX",
"qXqXqXqXqXqXqXqXqXqXh B B g d B B M f s 5 s f f j O O qX- k g z M B M B z s 5 % = k & O qXqXqXqXqXqXqXqXqXqXqXqXqXqXqXqXqXqXqXqX",
"qXqXqXqXqXqXqXqXqXd z v c B c v M M M M M k 5 $ $ 5 X qXqXx n B B B B M M M z f z g O $ % qXqXqXqXqXqXqXqXqXqXqXqXqXqXqXqXqXqXqX",
"qXqXqXqXqXqXqXqXqXqX* $ = B B B M M z g g g $ 5 $ $ @ qXqXg z v k k c c z 5 5 g = $ $ $ * qXqXqXqXqXqXqXqXqXqXqXqXqXqXqXqXqXqXqX",
"qXqXqXqXqXqXqXqXqXqXqXqXr v v c 5 $ O X X 5 $ $ O qXqXqXqXqX- % 6 j % O X @ p p | [ u 7 qXqXqXqXqXqXqXqXqXqXqXqXqXqXqXqXqXqXqXqX",
"qXqXqXqXqXqXqXqXqXqXqXqX..[ u p u q e e y y ; qXqXqXqXqXqXqXqXqXu ] ] ]  .5. .8.5.5.7.{ qXqXqXqXqXqXqXqXqXqXqXqXqXqXqXqXqXqXqXqX",
"qXqXqXqXqXqXqXqXqXqXqXu ..w.9.9.6.( (  . .~ qXqXqXqXqXqXqXqXqXqXqX . . . . .] ` ( ) 5.[ qXqXqXqXqXqXqXqXqXqXqXqXqXqXqXqXqXqXqXqX",
"qXqXqXqXqXqXqXqXqXqXqX9.[ { 7.6.` ( ]  .] qXqXqXqXqXqXqXqXqXqXqXqXu ] ] ] ` ) ~  .6.8.{ qXqXqXqXqXqXqXqXqXqXqXqXqXqXqXqXqXqXqXqX",
"qXqXqXqXqXqXqXqXqXqXqX8.u | ` [ u q ` u qXqXqXqXqXqXqXqXqXqXqXqXqXqX< q ) ) } ` p ) [ { { qXqXqXqXqXqXqXqXqXqXqXqXqXqXqXqXqXqXqX",
"qXqXqXqXqXqXqXqXqXqX[ [ 6.7.9.5.` ] ` qXqXqXqXqXqXqXqXqXqXqXqXqXqXqXqX. 9  . . . .] ` ) } u t qXqXqXqXqXqXqXqXqXqXqXqXqXqXqXqXqX",
"qXqXqXqXqXqXqXqXqX3 3 2 9 t e q  .( qXqXqXqXqXqXqXqXqXqXqXqXqXqXqXqXqXqXqXu ( ]  .] 9 <       . qXqXqXqXqXqXqXqXqXqXqXqXqXqXqXqX",
"qXqXqXqXqXqXqXqXqX3 1 1 1 1     1 qXqXqXqXqXqXqXqXqXqXqXqXqXqXqXqXqXqXqXqXqXqXqXu 9 <             . qXqXqXqXqXqXqXqXqXqXqXqXqXqX",
"qXqXqXqXqXqXqXqXqX2 < 3 , 1 > qXqXqXqXqXqXqXqXqXqXqXqXqXqXqXqXqXqXqXqXqXqXqXqXqXqXqXqXqXqXqX, < > > qXqXqXqXqXqXqXqXqXqXqXqXqXqX",
"qXqXqXqXqXqXqXqXqXqXu t qXqXqXqXqXqXqXqXqXqXqXqXqXqXqXqXqXqXqXqXqXqXqXqXqXqXqXqXqXqXqXqXqXqXqXqXqXqXqXqXqXqXqXqXqXqXqXqXqXqXqXqX",
"qXqXqXqXqXqXqXqXqXqXqXqXqXqXqXqXqXqXqXqXqXqXqXqXqXqXqXqXqXqXqXqXqXqXqXqXqXqXqXqXqXqXqXqXqXqXqXqXqXqXqXqXqXqXqXqXqXqXqXqXqXqXqXqX",
"qXqXqXqXqXqXqXqXqXqXqXqXqXqXqXqXqXqXqXqXqXqXqXqXqXqXqXqXqXqXqXqXqXqXqXqXqXqXqXqXqXqXqXqXqXqXqXqXqXqXqXqXqXqXqXqXqXqXqXqXqXqXqXqX",
"qXqXqXqXqXqXqXqXqXqXqXqXqXqXqXqXqXqXqXqXqXqXqXqXqXqXqXqXqXqXqXqXqXqXqXqXqXqXqXqXqXqXqXqXqXqXqXqXqXqXqXqXqXqXqXqXqXqXqXqXqXqXqXqX",
"qXqXqXqXqXqXqXqXqXqXqXqXqXqXqXqXqXqXqXqXqXqXqXqXqXqXqXqXqXqXqXqXqXqXqXqXqXqXqXqXqXqXqXqXqXqXqXqXqXqXqXqXqXqXqXqXqXqXqXqXqXqXqXqX"
};
