/* XPM */
static char *zell[] = {
/* columns rows colors chars-per-pixel */
"64 64 226 2 ",
"   c #040207",
".  c #0D0306",
"X  c #050308",
"o  c #0C0609",
"O  c #0C0A0B",
"+  c #130405",
"@  c #1D0304",
"#  c #120D0D",
"$  c #1D0C0C",
"%  c #170707",
"&  c #13100F",
"*  c #1D110E",
"=  c #0F0F13",
"-  c #120F10",
";  c #151211",
":  c #1A1514",
">  c #1D1916",
",  c #19161A",
"<  c #1E1A1A",
"1  c #13131B",
"2  c #250403",
"3  c #2B0403",
"4  c #240C0B",
"5  c #2B0B07",
"6  c #340402",
"7  c #3B0302",
"8  c #3B0A03",
"9  c #380B09",
"0  c #231414",
"q  c #231D1B",
"w  c #251915",
"e  c #351716",
"r  c #31100D",
"t  c #25211F",
"y  c #2C231D",
"u  c #36261D",
"i  c #1C1C24",
"p  c #1A1B28",
"a  c #141A35",
"s  c #161C3C",
"d  c #181E3D",
"f  c #1A1D32",
"g  c #241D23",
"h  c #331A23",
"j  c #201F34",
"k  c #1D223B",
"l  c #1D202E",
"z  c #252122",
"x  c #292523",
"c  c #2C2926",
"v  c #2D2929",
"b  c #27252C",
"n  c #362A23",
"m  c #372D28",
"M  c #36312E",
"N  c #3D312A",
"B  c #242532",
"V  c #252838",
"C  c #383534",
"Z  c #322F35",
"A  c #440403",
"S  c #4B0403",
"D  c #430A02",
"F  c #4B0A03",
"G  c #450B0A",
"H  c #540603",
"J  c #5B0502",
"K  c #580A03",
"L  c #471916",
"P  c #581510",
"I  c #640703",
"U  c #7B0A02",
"Y  c #6E1612",
"T  c #592218",
"R  c #43342B",
"E  c #423027",
"W  c #5B3C2C",
"Q  c #443A34",
"!  c #463937",
"~  c #523C31",
"^  c #6B2A1E",
"/  c #48423D",
"(  c #584337",
")  c #75432E",
"_  c #694B3A",
"`  c #774A34",
"'  c #6C523B",
"]  c #7C553D",
"[  c #74573C",
"{  c #171E41",
"}  c #181F43",
"|  c #171E4A",
" . c #172043",
".. c #192144",
"X. c #1B244B",
"o. c #1E294E",
"O. c #1F2844",
"+. c #1E2752",
"@. c #1F2951",
"#. c #2A2D43",
"$. c #232A4C",
"%. c #242944",
"&. c #2D3149",
"*. c #38384B",
"=. c #222D55",
"-. c #242F58",
";. c #243056",
":. c #263259",
">. c #29355C",
",. c #2C385F",
"<. c #2E3654",
"1. c #313A5C",
"2. c #343A54",
"3. c #2E3A62",
"4. c #2B3765",
"5. c #323E65",
"6. c #343E6A",
"7. c #453C48",
"8. c #3F404B",
"9. c #344167",
"0. c #35426A",
"q. c #39466D",
"w. c #3B486E",
"e. c #3D4361",
"r. c #3C4B72",
"t. c #38477C",
"y. c #3F5076",
"u. c #4B4443",
"i. c #49454B",
"p. c #494355",
"a. c #595150",
"s. c #7A5944",
"d. c #695146",
"f. c #76624D",
"g. c #484B66",
"h. c #404E73",
"j. c #434D7C",
"k. c #415176",
"l. c #45557A",
"z. c #46587B",
"x. c #4A5A7D",
"c. c #495779",
"v. c #6B696A",
"b. c #746D67",
"n. c #757276",
"m. c #800B02",
"M. c #8E1003",
"N. c #834D33",
"B. c #8B553B",
"V. c #885339",
"C. c #91573C",
"Z. c #835B43",
"A. c #8B5D42",
"S. c #955E41",
"D. c #87664D",
"F. c #9C6345",
"G. c #96664A",
"H. c #9B6A4C",
"J. c #966649",
"K. c #8A6D51",
"L. c #846956",
"P. c #9D6E50",
"I. c #8B7255",
"U. c #8B7456",
"Y. c #93795C",
"T. c #99745A",
"R. c #A56B4B",
"E. c #A37355",
"W. c #AB7C5D",
"Q. c #A87757",
"!. c #B27F5E",
"~. c #A16F51",
"^. c #8A726B",
"/. c #957765",
"(. c #847D76",
"). c #9C846A",
"_. c #998264",
"`. c #8A837B",
"'. c #A28B6D",
"]. c #AB8568",
"[. c #B38364",
"{. c #BB8A6A",
"}. c #B68768",
"|. c #AB9576",
" X c #AB9677",
".X c #BB9273",
"XX c #B19A7C",
"oX c #BC906F",
"OX c #C18E6D",
"+X c #C3906E",
"@X c #C39372",
"#X c #CB9D7A",
"$X c #C89977",
"%X c #D19F7C",
"&X c #CDA17D",
"*X c #D3A17E",
"=X c #3E4D8B",
"-X c #414F88",
";X c #4D5D81",
":X c #455285",
">X c #505F82",
",X c #536385",
"<X c #566689",
"1X c #5A6A8C",
"2X c #5E6E90",
"3X c #4F6082",
"4X c #637394",
"5X c #4A5CA0",
"6X c #A39B92",
"7X c #B29E81",
"8X c #B3A490",
"9X c #ABA299",
"0X c #C9A485",
"qX c #D2AB86",
"wX c #D2AD88",
"eX c #D5A784",
"rX c #D3B088",
"tX c #E3AE8A",
"yX c #E2B18F",
"uX c #E6BB99",
"iX c #C5BBB0",
"pX c #F5D8B9",
"aX c #F3CBAB",
"sX c #D4C9BA",
"dX c #F5DFC2",
"fX c None",
/* pixels */
"fXfXfXfXfXfXfXfXfXfXfXfXfXfXfXfXfXfXfXfXfXfXfXfXfXfXfXfXfXfXfXfXfXfXfXfXfXfXfXfXfXfXfXfXfXfXfXfXfXfXfXfXfXfXfXfXfXfXfXfXfXfXfXfX",
"fXfXfXfXfXfXfXfXfXfXfXfXfXfXfXfXfXfXfXfXfXfX[ fXfXI._.fXf.fXfXfXfXfXfXfXfXfXfXfXfXfXfXfXfXfXfXfXfXfXfXfXfXfXfXfXfXfXfXfXfXfXfXfX",
"fXfXfXfXfXfXfXfXfXfXfXfXfXfXfXfXfXfXfXfXfXfX).|.8X7XXX7XXXfXK.' fXfXfXfXfXfXfXfXfXfXfXfXfXfXfXfXfXfXfXfXfXfXfXfXfXfXfXfXfXfXfXfX",
"fXfXfXfXfXfXfXfXfXfXfXfXfXfXfXfXfXfXfXfX[ Y.'.XX'.|.|.XX X).|.fXfXfXfXfXfXfXfXfXfXfXfXfXfXfXfXfXfXfXfXfXfXfXfXfXfXfXfXfXfXfXfXfX",
"fXfXfXfXfXfXfXfXfXfXfXfXfXfXfXfXfXfXfXfXXX|.XX7XY._.U.K._._.'.'.fXfXfXfXfXfXfXfXfXfXfXfXfXfXfXfXfXfXfXfXfXfXfXfXfXfXfXfXfXfXfXfX",
"fXfXfXfXfXfXfXfXfXfXfXfXfXfXfXfXfXfX).I.I.Y.U.I.Y.I.D.s.K.Y.].Y.I.s.fXfXfXfXfXfXfXfXfXfXfXfXfXfXfXfXfXfXfXfXfXfXfXfXfXfXfXfXfXfX",
"fXfXfXfXfXfXfXfXfXfXfXfXfXfXfXfXfX|.U.[ [ H.{.&XuXaXaXpXdXdXaXuX&XD.fXfXfXfXfXfXfXfXfXfXfXfXfXfXfXfXfXfXfXfXfXfXfXfXfXfXfXfXfXfX",
"fXfXfXfXfXfXfXfXfXfXfXfXfXfXfXfXfX'.U.[ ] E.[.[.[.]..X0XyXwX'.L.K.B.fXfXfXfXfXfXfXfXfXfXfXfXfXfXfXfXfXfXfXfXfXfXfXfXfXfXfXfXfXfX",
"fXfXfXfXfXfXfXfXfXfXfXfXfXfXfXfXfXfXH.[ V.J.Q.W.)..XeXtXtXyXtXeX].K.fXfXfXfXfXfXfXfXfXfXfXfXfXfXfXfXfXfXfXfXfXfXfXfXfXfXfXfXfXfX",
"fXfXfXfXfXfXfXfXfXfXfXfXfXfXfXfXfXfXF.C.N.C.R.[.$X*XeXeX+X@X*X*X+XfXfXfXfXfXfXfXfXfXfXfXfXfXfXfXfXfXfXfXfXfXfXfXfXfXfXfXfXfXfXfX",
"fXfXfXfXfXfXfXfXfXfXfXfXfXfXfXfXfXfXfXfXfXC.C.C.Q.{.OX+X+X+XOX[.F.` Q a.b.b.v.fXfXfXfXfXfXfXfXfXfXfXfXfXfXfXfXfXfXfXfXfXfXfXfXfX",
"fXfXfXfXfXfXfXfXfXfXfXfXfXfXfXfXfXfXfX> fXfXC.V.C.C.F.R.{.OX[.R.F.B.( / C c t z v v v v fXfXfXfXfXfXfXfXfXfXfXfXfXfXfXfXfXfXfXfX",
"fXfXfXfXfXfXfXfXfXfXfXfXc < ; & ; ; > : > t R N.C.C.S.R.E.Q.R.H.d.M t > : > w > < < z z < z C i.fXfXfXfXfXfXfXfXfXfXfXfXfXfXfXfX",
"fXfXfXfXfXfXfXfXfXfXt t > # & = ; & = & > < ( Q.Q.R.R.!.{.E.` m : # & & ; ; ; : < > z v M Z Z i.g.g.g.*.fXfXfXfXfXfXfXfXfXfXfXfX",
"fXfXfXfXfXfXfXt ; : : ; & # = & < > > x M / L.{.@X+X@XOX) r 6 5 4 $ % # & & & & ; < < t i < i i j #.1.5.5.6.4.$.fXfXfXfXfXfXfXfX",
"fXfXfXfXfXfX; : > : & = & : > t q r e C f.)./.D.s.d.( e D 2 3 6 3 3 3 5 5 @ # # : > : = = & & ; : < B #.2.t.=X3.%.fXfXfXfXfXfXfX",
"fXfXfXfXfXfX#._ ' W _ s.D.N o   @ @ . w t w u E u w : + 8 8 3 D K H 7 6 6 8 3 @ o & & = ; ; & & # 1 f =.>.1.6.g.=X6.4.fXfXfXfXfX",
"fXfXfXfXfX$.b D.E.W.W.E.W.T.x X . 2 . : m N R R R / Q w 2 D 8 K m.m.I D F S D 8 3 2 % o O , < < : ; - - k 4.6.q.-X5X-X<.b fXfXfX",
"fXfXfXfXX.$.u.T.[..X.X}.E.[.D.-   % @ o N R N n y y y t % 8 D 8 U M.U I J K H F P T 5     X # , g j k k +.| | +.-.6.-X:X6.&.Z fX",
"fXfXfX> q g ' W.}.@X0X$XW.D.R : # 3 D % & w > : : * : t ; % D 8 H U U J F T ^ I D 6 5 %     X X - , < < p p f g g h < ; & - O O ",
"fXfXfXfXo o u A.H.E.W.W.Q.` w O O r K D . X ; t n R n N E 0 5 F 6 A F D D 9 9 5 @ @ @ @ . X O ; n _ s.[ [ ] V.Z.N.N.) W u w fXfX",
"fXfXfXfXfXfXfXfXfXfXfXS.C.fXfXfXfXfXfXA 6 . o t b v v b i i 1 0 e h h h q 0 w w : > fXfXfXfXR s.[.].}.}.oX{.].W.H.C.V.N.fXfXfXfX",
"fXfXfXfXfXfXfXfXfXfXfXfXfXfXfXfXfXfXfXfXfXl k ..;.;.k a *.v.n.n.V d %.>.o. .X...O. .o.fXfX.XoX.X$X#X&X#X.X}.].E.H.J.J.fXfXfXfXfX",
"fXfXfXfXfXfXfXfXfXfXfXfXfXfXfXfXfXfXfXfX . .@.;.;.;.:.<.,.q.9.9.3.=.:.:.o.@...a a f ..$.)..X.X#X$X.X}.}.W.E.P.H.fXfXfXfXfXfXfXfX",
"fXfXfXfXfXfXfXfXfXfXfXfXfXfXfXfXfXfXfXX.-.;.>.>.3.3.q.r.x.z.w.q.5.>.:.:.=.;.:.o.f p p C D.Y.T.E.E.T.H.H.G.fXfXfXfXfXfXfXfXfXfXfX",
"fXfXfXfXfXfXfXfXfXfXfXfXfXfXfXfXfXo.;.5.>.-.@.@.:.9.3.q.k.q.0.9.;.X.V V l p ; = t M M / (.6Xb.Q ( ` fXfXfXfXfXfXfXfXfXfXfXfXfXfX",
"fXfXfXfXfXfXfXfXfXfXfXfXfXfXfXfX;.9.q.5.>.@.o.X.X.@.,.9.9.>.k i < > < c a./ C / c c Q u.m Q M > % fXfXfXfXfXfXfXfXfXfXfXfXfXfXfX",
"fXfXfXfXfXfXfXfXfXfXfXfXfXfX0.q.0.0.9.5.>.-.o.....k  .....o.O.B p < M a.`.n.6X`.9X6Xn./ C Z p fXfXfXfXfXfXfXfXfXfXfXfXfXfXfXfXfX",
"fXfXfXfXfXfXfXfXfXfXfXfXfXr.9.5.5.,.:.:.;.=.o... .s a a X.;.;.V < < > < y Q b.8XsXiXiXv.%.s s { fXfXfXfXfXfXfXfXfXfXfXfXfXfXfXfX",
"fXfXfXfXfXfXfXfXfXfXfXr.z.r.5.>.=.o. .k k s d s s k s k s o.:.>.<.&.B < > > < < v 8.e.>.-.@.X.....fXfXfXfXfXfXfXfXfXfXfXfXfXfXfX",
"fXfXfXfXfXfXfXfXfXfXr.r.9.5.3.:.@...k s s  ...|  . . . . .;.9.0.9.9.q.e.9.<.8.>.,.5.3.3.:.-.+.X.o.fXfXfXfXfXfXfXfXfXfXfXfXfXfXfX",
"fXfXfXfXfXfXfXfXfXk.r.r.q.5.:.@... .s ..o.X.X... . . . ...>.0.r.r.r.y.l.w.q.r.y.q.9.9.3.:.X.......X.fXfXfXfXfXfXfXfXfXfXfXfXfXfX",
"fXfXfXfXfXfXfXfXl.;Xl.r.0.3.-.X.{ { | $...} d }  . . .s o.0.w.r.y.x.3Xx.y.y.k.y.q.9.5.>.-.o.X. . .X.fXfXfXfXfXfXfXfXfXfXfXfXfXfX",
"fXfXfXfXfXfXr.x.,Xx.r.9.>.+...} d } | X.} } s { ..{ ..X.-.0.r.l.x.x.<X,Xy.r.c.z.q.9.5.4.=.+.o.X.X.X.fXfXfXfXfXfXfXfXfXfXfXfXfXfX",
"fXfXfXfXfXk.;X,Xl.q.3.=.....} s { ..} } o.X.{ X...@.=.fX=.5.r.z.x.,X<X,Xy.w.y.l.9.9.9.:.+.+.X. ...+.fXfXfXfXfXfXfXfXfXfXfXfXfXfX",
"fXfXfXfX;X<X>Xh.3.4.-.o.@.+.s } @.X.} X.X.| o...@.>.fXfX:.3.0.r.,X<X1X<Xk.w.w.q.q.r.q.3.:.:.@.X.| X.fXfXfXfXfXfXfXfXfXfXfXfXfXfX",
"fXfX,X1X<Xz.q.5.3.>.;.-.+.X.$.=.o.} } } X.+...=.3.fXfXfX,.3.9.r.c.,X1X1X,Xx.l.r.0.9.,.=.o.o.X.X...X.fXfXfXfXfXfXfXfXfXfXfXfXfXfX",
"fX<X1X4X,Xr.3.:.;.-.-.@.o.=.X.| s { } { X.o.4.0.fXfXfXfX>.,.5.w.c.,X1X4X<X,X;Xz.y.w.q.9.3.>.;.+.X.X.fXfXfXfXfXfXfXfXfXfXfXfXfXfX",
"x.1X4X<Xr.3.>.:.:.:.-.@.+.| } { s { s s $.5.k.fXfXfXfXfX3.5.w.z.<X4X4X4X2X,X3X;X:Xy.r.0.3.,.=.@.o.X.+.fXfXfXfXfXfXfXfXfXfXfXfXfX",
"<X1X1Xl.3.>.:.;.:.:.+.+.X.} { a a a s s | 4.r.c.fXfXfXfX3.5.q.z.<X2X4X4X1X<X3Xx.z.y.q.9.3.>.:.+.+.....@.fXfXfXfXfXfXfXfXfXfXfXfX",
"fX>X,Xx.5.3.:.:.+.+.=.o.| | s s s a { s { +.6.j.fXfXfXfX3.5.w.l.,X2X4X4X1X,X;Xx.;Xr.r.q.5.5.3.:.@.....@.fXfXfXfXfXfXfXfXfXfXfXfX",
"fXfXx.,Xk.5.4.:...{ { ..X...| { { s { { a | 1.fXfXfXfXfX3.5.w.k.,X1X4X4X<X,Xx.x.x.k.y.y.r.q.5.:.+.+.=.+...fXfXfXfXfXfXfXfXfXfXfX",
"fXfXfXfX,Xk.3.-.o.s a s ..+.+...{ { s { } | fXfXfXfXfXfXfX5.0.r.z.,X1X1X<X,X;X;Xz.z.z.z.k.r.6.3.,.>.=.+.X.X.fXfXfXfXfXfXfXfXfXfX",
"fXfXfXfXfXfXfX5.3.>.=.&.*.7.g.p.7.! ! d.L./.fXfXfXfXfXfXfXfX5.6.r.z.,X1X2X<X;X;Xz.y.y.z.c.j.h.w.0.3.:.+...X.X.fXfXfXfXfXfXfXfXfX",
"fXfXfXfXfXfXfXfXfXfXfXfX#X+X{.W.G.B.N.A.W.{.fXfXfXfXfXfXfXfXfX3.9.0.y.x.<X<X;Xx.y.y.r.j.r.k.h.h.r.0.3.>.=.@.fXfXfXfXfXfXfXfXfXfX",
"fXfXfXfXfXfXfXfXfXfXfXfXrXwX*X$X[.E.H.G.E.W.fXfXfXfXfXfXfXfXfXfX9.w.r.z.x.<X<X<X;Xz.l.l.x.c.g.a.fXfXfXfXfXfXfXfXfXfXfXfXfXfXfXfX",
"fXfXfXfXfXfXfXfXfXfXfXfXfXwXeXqX$X}.W.Q.E.E.fXfXfXfXfXfXfXfXfXfXfXfXfXfXfXfX^./././././.T.G.B.` ` fXfXfXfXfXfXfXfXfXfXfXfXfXfXfX",
"fXfXfXfXfXfXfXfXfXfXfXfXfXfX{.OXOX{.W.E.F.s.fXfXfXfXfXfXfXfXfXfXfXfXfXfXfXfXfX#X&X#X#X0X$X{.Q.J.B.B.fXfXfXfXfXfXfXfXfXfXfXfXfXfX",
"fXfXfXfXfXfXfXfXfXfXfXfXfXfXfXd.Z.Z.] _ W n < fXfXfXfXfXfXfXfXfXfXfXfXfXfXfXfXfXwXrXwXrXwX&X+XW.E.H.fXfXfXfXfXfXfXfXfXfXfXfXfXfX",
"fXfXfXfXfXfXfXfXfXfXfXfXfXfXfXc v x g g q q # + fXfXfXfXfXfXfXfXfXfXfXfXfXfXfXfXfXrXrXqXrXwX*X+X[.Q.fXfXfXfXfXfXfXfXfXfXfXfXfXfX",
"fXfXfXfXfXfXfXfXfXfXfXfXfXfX$ + : w 0 9 G S J I I fXfXfXfXfXfXfXfXfXfXfXfXfXfXfXfXfXqXqXqXqXeX#X{.W.fXfXfXfXfXfXfXfXfXfXfXfXfXfX",
"fXfXfXfXfXfXfXfXfXfXfXfXo O % o @ 6 7 S J 7 + . . + fXfXfXfXfXfXfXfXfXfXfXfXfXfXfXfXfX$X+X+X+XOX}.W.H.fXfXfXfXfXfXfXfXfXfXfXfXfX",
"fXfXfXfXfXG J J S 6 3 2 6 7 7 A 7 2 2 . + 2 9 9 L L fXfXfXfXfXfXfXfXfXfXfXfXfXfXfXfXfXfXZ.G.H.G.G.J.] ~ fXfXfXfXfXfXfXfXfXfXfXfX",
"fXfXfXfX2 $ $ 5 G F A G 7 6 6 6 2 @ @ @ @ 2 r w fXfXfXfXfXfXfXfXfXfXfXfXfXfXfXfXfXfXfXfXfXQ ~ ( ~ N x q < fXfXfXfXfXfXfXfXfXfXfX",
"fXfXfXfX5 3 9 5 2 2 2 2 2 fXfXfXfXfXfXfXfXfXfXfXfXfXfXfXfXfXfXfXfXfXfXfXfXfXfXfXfXfXfXfXfXx x b c c c c q - fXfXfXfXfXfXfXfXfXfX",
"fXfXfXfXfXfXfXfXfXfXfXfXfXfXfXfXfXfXfXfXfXfXfXfXfXfXfXfXfXfXfXfXfXfXfXfXfXfXfXfXfXfXfXfXfXfX: q q q : o + 2 G fXfXfXfXfXfXfXfXfX",
"fXfXfXfXfXfXfXfXfXfXfXfXfXfXfXfXfXfXfXfXfXfXfXfXfXfXfXfXfXfXfXfXfXfXfXfXfXfXfXfXfXfXfXfXfXfXo $ 0 4 4 $ 3 Y Y L fXfXfXfXfXfXfXfX",
"fXfXfXfXfXfXfXfXfXfXfXfXfXfXfXfXfXfXfXfXfXfXfXfXfXfXfXfXfXfXfXfXfXfXfXfXfXfXfXfXfXfXfXfXfXfXX % 4 $ , $ 6 H P L fXfXfXfXfXfXfXfX",
"fXfXfXfXfXfXfXfXfXfXfXfXfXfXfXfXfXfXfXfXfXfXfXfXfXfXfXfXfXfXfXfXfXfXfXfXfXfXfXfXfXfXfXfX6 + X # # $ $ . 6 S 6 @ 2 fXfXfXfXfXfXfX",
"fXfXfXfXfXfXfXfXfXfXfXfXfXfXfXfXfXfXfXfXfXfXfXfXfXfXfXfXfXfXfXfXfXfXfXfXfXfXfXfXfXfXfX7 + + $ $ $ 0 $ % 6 A 6 6 6 fXfXfXfXfXfXfX",
"fXfXfXfXfXfXfXfXfXfXfXfXfXfXfXfXfXfXfXfXfXfXfXfXfXfXfXfXfXfXfXfXfXfXfXfXfXfXfXfXfXG S A S 7 7 6 3 2 2 3 7 H H fXfXfXfXfXfXfXfXfX",
"fXfXfXfXfXfXfXfXfXfXfXfXfXfXfXfXfXfXfXfXfXfXfXfXfXfXfXfXfXfXfXfXfXfXfXfXfXfXfXfXfX+ o 3 S H I J S S J H 8 G fXfXfXfXfXfXfXfXfXfX",
"fXfXfXfXfXfXfXfXfXfXfXfXfXfXfXfXfXfXfXfXfXfXfXfXfXfXfXfXfXfXfXfXfXfXfXfXfXfXfXfXfXo 2 4 4 4 5 4 4 4 3 7 S fXfXfXfXfXfXfXfXfXfXfX",
"fXfXfXfXfXfXfXfXfXfXfXfXfXfXfXfXfXfXfXfXfXfXfXfXfXfXfXfXfXfXfXfXfXfXfXfXfXfXfXfXfXfXfX3 3 6 2 @ 2 fXfXfXfXfXfXfXfXfXfXfXfXfXfXfX"
};
