/* XPM */
static char *north[] = {
/* columns rows colors chars-per-pixel */
"16 11 138 2 ",
"   c #9298A3",
".  c #959BA5",
"X  c #949CA8",
"o  c #969EA9",
"O  c #99A0AC",
"+  c #9FA5B1",
"@  c #A2A6B0",
"#  c #AAAEB6",
"$  c #ABAFB9",
"%  c #ABB0BB",
"&  c #ACB1BA",
"*  c #AEB2BA",
"=  c #ABB2BC",
"-  c #ADB4BE",
";  c #B0B6BE",
":  c #B1B6C1",
">  c #B2B7C1",
",  c #B1B7C3",
"<  c #B2B9C3",
"1  c #B5B9C1",
"2  c #B7BBC2",
"3  c #B3B8C4",
"4  c #B6BBC7",
"5  c #B6BCC5",
"6  c #B6BDC7",
"7  c #B9BDC5",
"8  c #B9BDC6",
"9  c #BABEC6",
"0  c #BBBFC6",
"q  c #BBC2CB",
"w  c #BDC0C8",
"e  c #BFC3C9",
"r  c #BCC2CB",
"t  c #BFC3CB",
"y  c #C0C3C9",
"u  c #C1C5CB",
"i  c #C3C5CB",
"p  c #C0C3CF",
"a  c #C0C4CC",
"s  c #C1C4CC",
"d  c #C1C5CD",
"f  c #C4C7CD",
"g  c #C5C9CF",
"h  c #C6C9CF",
"j  c #C1C5D0",
"k  c #C1C8D0",
"l  c #C3C8D0",
"z  c #C4C8D0",
"x  c #C5C8D0",
"c  c #C6C9D3",
"v  c #C8CBD3",
"b  c #C8CCD1",
"n  c #C8CCD2",
"m  c #CBCDD2",
"M  c #C9CCD4",
"N  c #CACDD4",
"B  c #CACED4",
"V  c #CBCED4",
"C  c #CBCED5",
"Z  c #CBCED6",
"A  c #CBCFD6",
"S  c #CBCFD7",
"D  c #CDCFD6",
"F  c #CCCFD7",
"G  c #CED1D7",
"H  c #CFD1D7",
"J  c #CFD2D7",
"K  c #CFD1D8",
"L  c #CFD1D9",
"P  c #CDD2D9",
"I  c #CFD2D9",
"U  c #CFD3DB",
"Y  c #D0D2D9",
"T  c #D0D3D9",
"R  c #D2D3D8",
"E  c #D0D3DA",
"W  c #D0D3DB",
"Q  c #D1D4D9",
"!  c #D1D4DA",
"~  c #D2D4DA",
"^  c #D4D5DA",
"/  c #D5D5DA",
"(  c #D5D6DB",
")  c #D0D3DC",
"_  c #D3D5DC",
"`  c #D3D6DD",
"'  c #D3D6DE",
"]  c #D4D5DC",
"[  c #D5D6DC",
"{  c #D4D6DD",
"}  c #D5D6DD",
"|  c #D5D7DD",
" . c #D6D7DC",
".. c #D4D7DE",
"X. c #D5D7DE",
"o. c #D7D9DD",
"O. c #D5D8DF",
"+. c #D6D8DE",
"@. c #D7D8DE",
"#. c #D7D9DE",
"$. c #D6D8DF",
"%. c #D7D8DF",
"&. c #D8DADF",
"*. c #D8DAE0",
"=. c #D9DAE0",
"-. c #DADBE0",
";. c #DBDCE1",
":. c #DBDCE2",
">. c #DCDDE2",
",. c #DCDDE3",
"<. c #DDDEE3",
"1. c #DEDEE3",
"2. c #DEDFE3",
"3. c #DDDFE4",
"4. c #DDDEE5",
"5. c #DEDFE4",
"6. c #DFDFE4",
"7. c #DFE0E5",
"8. c #E0E1E6",
"9. c #E1E1E6",
"0. c #E0E1E7",
"q. c #E1E2E6",
"w. c #E1E2E7",
"e. c #E2E2E6",
"r. c #E2E2E7",
"t. c #E2E3E7",
"y. c #E3E3E8",
"u. c #E3E4E8",
"i. c #E3E4E9",
"p. c #E3E4EA",
"a. c #E4E4E9",
"s. c #E5E5E9",
"d. c #E4E5EA",
"f. c #E5E5EA",
"g. c #E5E6EB",
"h. c #E6E6EB",
"j. c #E6E7EB",
"k. c #E6E7EC",
/* pixels */
"= ; < 6 r k Z A _ | $.$._ %.+.X.",
"- 5 q l B P U ' O.&.r.0.4.,.:.@.",
"9 u n J ! ..*.=.3.8.i.a.a.0.7.2.",
"e h C I ` | >.#.7.w.u.p.q.k.i.w.",
"i m D Q ^ | =.;.5.6.a.f.j.j.g.t.",
"a b G T R ] } :.<.1.w.d.g.h.h.t.",
"7 f N H S I {  .>.,.8.i.y.k.g.s.",
"1 y z V N K ( / -.1.8.r.e.a.t.9.",
"* 2 w s g M F Y [  .;.5.3.5.:.o.",
"@ # & > 0 t d x v D L ) W W E ~ ",
"  . o X O + % $ : , 3 4 8 j p c "
};
