/* XPM */
static char *sprite[] = {
/* columns rows colors chars-per-pixel */
"64 64 170 2 ",
"   c #071C62",
".  c #0B1E67",
"X  c #051E6D",
"o  c #091F6A",
"O  c #062461",
"+  c #092366",
"@  c #06246D",
"#  c #0A246C",
"$  c #072A6F",
"%  c #0B296D",
"&  c #062474",
"*  c #0A2574",
"=  c #072874",
"-  c #0B2A74",
";  c #05257A",
":  c #0B267A",
">  c #072A7C",
",  c #0B2B7C",
"<  c #102C7C",
"1  c #073176",
"2  c #0E3074",
"3  c #07347E",
"4  c #0C327D",
"5  c #07387D",
"6  c #08397F",
"7  c #10317E",
"8  c #062683",
"9  c #082781",
"0  c #072A85",
"q  c #0C2C83",
"w  c #06278B",
"e  c #09278D",
"r  c #062C8B",
"t  c #0B2D8B",
"y  c #102781",
"u  c #112C84",
"i  c #112E8C",
"p  c #182E8E",
"a  c #073583",
"s  c #0C3384",
"d  c #073884",
"f  c #0A3A85",
"g  c #07338A",
"h  c #0C328C",
"j  c #073C8B",
"k  c #0C3B8B",
"l  c #113385",
"z  c #113B85",
"x  c #12348B",
"c  c #183789",
"v  c #133A8D",
"b  c #18388E",
"n  c #052E92",
"m  c #0B2E91",
"M  c #112E91",
"N  c #063195",
"B  c #0C3393",
"V  c #073A95",
"C  c #0D3C93",
"Z  c #06339B",
"A  c #0B359A",
"S  c #0D3B9B",
"D  c #123494",
"F  c #193692",
"G  c #123C94",
"H  c #183B95",
"J  c #13369A",
"K  c #1A3799",
"L  c #133B9C",
"P  c #1A3B9D",
"I  c #0636A0",
"U  c #0A36A2",
"Y  c #0D3CA3",
"T  c #0E3FA9",
"R  c #1236A0",
"E  c #133DA3",
"W  c #1B3EA3",
"Q  c #133DA9",
"!  c #1B3EAB",
"~  c #0B4087",
"^  c #0C428C",
"/  c #11448D",
"(  c #12488F",
")  c #0D4293",
"_  c #074198",
"`  c #0C449B",
"'  c #0D499D",
"]  c #124494",
"[  c #134995",
"{  c #194B96",
"}  c #13439C",
"|  c #19449E",
" . c #144B9B",
".. c #1A4C9D",
"X. c #1C5097",
"o. c #1B519F",
"O. c #204F9D",
"+. c #22539B",
"@. c #2B529F",
"#. c #31559A",
"$. c #0D44A3",
"%. c #0D49A4",
"&. c #0E42AA",
"*. c #0E4DAA",
"=. c #1344A3",
"-. c #1A43A4",
";. c #134AA4",
":. c #194BA4",
">. c #1444AB",
",. c #1C45AB",
"<. c #154BAB",
"1. c #1B4BAB",
"2. c #0F51AD",
"3. c #1B51A4",
"4. c #1051AC",
"5. c #1C51AB",
"6. c #1547B1",
"7. c #1946B0",
"8. c #164CB1",
"9. c #1C4CB2",
"0. c #184DBA",
"q. c #0F51B0",
"w. c #1353B2",
"e. c #1C52B4",
"r. c #165AB6",
"t. c #1D5EB7",
"y. c #1751B9",
"u. c #1E53B9",
"i. c #1D5ABA",
"p. c #214CA6",
"a. c #2244AB",
"s. c #214AAE",
"d. c #2949AE",
"f. c #2354AC",
"g. c #2855AF",
"h. c #2959AF",
"j. c #2047B0",
"k. c #234CB3",
"l. c #2B4CB1",
"z. c #2249B8",
"x. c #2352B5",
"c. c #2A52B6",
"v. c #245CB7",
"b. c #2354BA",
"n. c #2B53B9",
"m. c #2559BB",
"M. c #2B5BBE",
"N. c #3255BA",
"B. c #335ABC",
"V. c #1F60BC",
"C. c #2361BE",
"Z. c #2D61BE",
"A. c #3562BC",
"S. c #3B66BA",
"D. c #2B5BC0",
"F. c #335CC0",
"G. c #395FC2",
"H. c #2260C1",
"J. c #2D63C2",
"K. c #3362C3",
"L. c #3B62C2",
"P. c #3A6CC6",
"I. c #4164C2",
"U. c #416EC5",
"Y. c #4B6DC7",
"T. c #426DC8",
"R. c #4E6EC9",
"E. c #4671CB",
"W. c #5277CC",
"Q. c #5D80CD",
/* pixels */
", c b v x F b b b x v c h x x f k s x s s q , , 9 > , , u q , s 3 x , f f j g B h B r h g h B r B g r h g q t t n N Z Z &.I 0.8.",
"7 c H v v G l s s s l s s h v s l s > q , , 7 > > : , * , * # , , < , 6 z c s k v h e h B B B h B B t e t v g e e B N Z Z T 6.&.",
"l c v x x b x c s s l l s q s > q , > , 4 , 3 , * : < - - * % - s < 4 5 s s x q v q e g t h B h t m t t m e h t t N N N Z U I T ",
"s c x t q l q , u , , u q > q : > , , = , - - : & - - - % % % % - = - 1 s s s g h q h x h x t B B t B t t r q g t r r N Z Z I I ",
"l c s q c s l , l q , < u , , , : , = = < - & , & * $ - % % % O % % 4 4 > 3 x h g t h t t t B B B B t t e e t r n w n N Z N Z I ",
"z h c l q s , 7 , , : , 7 , , - - & : : * = & & + - & # % % + + $ % - - 4 , q s q q q v r B B B B m t h 9 e q t r m B m n n U Z ",
"l x s l u , , < , < , , , , & - * & ; * : = * & : # * # - @ % O $ $ $ 1 - q 3 s h t q x g h B m N m t t 0 0 r g h n m n e N Z N ",
"< l , q 4 q , * * 2 * , * * @ = * @ & * * 2 # : & % o < + + # + % % 2 > = 4 < > 9 q v t h h D m h g 0 h q t r B r B n n m n Z Z ",
"7 l 4 4 < u # < * % : * : - # # @ @ & * : & # * * & # : - # # + + % % 1 4 , , s q q s G h h B e B h h t h D s e t Z N r n m I Z ",
", , , 4 7 < # # # - * < : : : * & & & * * & : : * - * * # % * * O % - - 4 , q s 0 s g h h h B m h B t h t t 0 B t A B r g Z U Z ",
", , , 4 2 - % # . # * - < , # & * - : : * : , , : - * - # - % * % % 2 - 4 H q s s h h h g B D B B h t t q t t m t Z h h m Z I Z ",
"4 < - 7 - = % % # # < : * , & * & * & & * * : , , & - < - % - % 2 - 2 3 , h x q q s h t t G B L B B h h t t r t N B r t q N Z n ",
"- , - , - 4 # - + % % < < , 9 < , * > - & , : : y , , & * - , - % - 2 , 4 q q s x s h B t h C D V n h t r h r h B n r r w N N n ",
"- , , - , 3 , < & < # * : : < , , l q - - * , q > u < 7 , , < - 2 2 , 7 , 7 q q s s h h m h B B B B r t q r q B n m r r 0 r Z n ",
"= , 4 , , c & - < < & : q : : : - 9 , > > , , , , u q , , , < - = , 3 , s q q x h D h D B B L S B B h t r t t h m B m t 8 r n n ",
"- , 4 , , l 2 , # - : : & q : q q q , > , q , q , q > , > , , * = , , , u l q h h v t B B C B A Z B h h h t t N B h r t 0 8 n n ",
"& - , s s 7 4 < , * , , , q q u h q q q , q , y > q u q q , q : - > s u q u s H G D g N B B L J B D t t t t B L h h t B w 8 r n ",
": , - , l 3 z q u * : , , u q x D h t y * q y q : u > q q u q u 3 , , > s s h L h h C B L L L Z A m B h t t m B r r g r r 0 w n ",
", , , , s 4 4 7 u s : : , u > q D h x M y : q , , u , e q q q q , s q x x h h D C B S B A A L A m B t B t t t B h 0 t r 0 q r r ",
"q l q , l s 2 l q b * < q * q q t h t t 9 : : : u t q i i q q t s q h b h x H -.G D B S -.R A A A B m h h t Z B t h r e 0 8 8 r ",
"q t h , q l z s u , # : : , u q h D J y i * : * : i x m M m i M x h h v G D P A L L S E Z E A A L B B B B t A B t g r t 8 9 8 0 ",
"l x v s q , 4 4 < < # X : : : > , t m q x 9 : : < B D P J e M M s G D B B G B L L B S Y E S =.A B A A J B B A A m r B q > > 9 9 ",
"q D H k f s , l - - * < u * y i y D K J D i 9 < q M L J m J M M v G B C L L } R E L S L E R A E Z A A m t t Y R U h B 9 ; ; r r ",
"h G L h v , 4 - # : # - : * : i q D W J D t i y t m J D m M e e B C L L E L E E =.Y =.E Y Y =.A B m m B h B Q Y >.B Z 8 > > 8 0 ",
"G G -.} | G f 4 , < # < , : q q i K ,.K h u q y q h L m i M m M B } Y A >.=.>.Q >.=.E Y Y =.A L B B J S B Y Q 7.&.S Y : > ; ; r ",
"x P -.} L :.G c 4 , * < : u D t i D E D t i u , q i L M m K A R L =.&.>.8.>.,.>.>.>.Q E Y Y E t t t Z Y S &.>.7.&.&.U : : ; ; r ",
"F p.:.| }  .G x s q : u u D J M q t -.P K t y : X u M W M W J J >.Q 9.<.z.8.>.6.9.>.E R E T Y Z 9 i E >.Q Q Y >.9.Y A : ; & ; w ",
"G L L ] C } P x v v u H D x D F q t J J W H F < o : D m J R M M >.9.9.7.m.0.b.0.9.>.E R U Q >.7.A K Q Q 1.Y =.Y z.&.B X > ; ; w ",
"] } L G ] | G s G v G s.J t D : t i J i D m h y o : t J R M e J 7.0.m.b.m.b.D.u.7.>.R J E >.6.>.&.T >.6.L A Y E 9.T e & ; X ; N ",
"G | P ..} ..} x G P 1.1.s.K P t t t D -.m L t u * : i K J K K W 7.D.D.D.K.P.J.u.>.>.S A R Q Y Q <.8.8.7.D B A Z 7.E 8 X > > > n ",
"C :.:.h.f.1.:.| J L k.-.1.-.-.W D F L -.J P H i : 9 M ! R i M R ! D.K.x.K.T.T.K.7.,.J L E 7.E E >.9.&.&.-.q g G Y =.t ; > > r Z ",
"H } p.f.1.:.p.| -.G -.1.-.F s.,.-.,.9.a.E W j.h y i P n.W < J K ! 7.z.,.M.L.Y.L.,.1.J D Z Y Q >.7.b.A B -.q > B B S r & & q r Z ",
"G :.S.g.1.} :.G p.:.-.:.L t P 1.1.x.n.c.u.,.u.K D P W a.u : p P z.F.N.z.F.L.R.B.d.| D t M R ! 7.Y 7.m q D : * s t e 9 & & > r U ",
"} 1.g.f.1.:.} G -.G L -.| x h L x.n.x.K.x.9.x.-.K ! G.l.i y p K d.G.n.F.n.F.R.B.a.! J i m J ,.E W A q : t > . > : > r & & > w S ",
"} :.f.1.1.1.| G | L D 1.G P k L x.z.y.K.M.x.=.N.,.P G.N.y y 9 p p a.d.l.N.B.I.K ! W M M e B E ,.R q 9 * o . . # & X r & > > r I ",
"=.-.f.5.:.] ] ..-.} } -.} :.S -.9.1.n.M.M.b.9.M.c.H l.a.p y < i M D ,.W N.N.N.J J K M D i K W R D y : o   . o * q > 9 - r 0 r $.",
";.:.f.f.3. .| } -.;.} :.:.1.>.<.1.x.b.m.F.D.u.z.x.W a.M u : u y D D J J a.,.! K P M i J D A J t i < & # #   o h D h 0 9 N $.B 6.",
";.:.f.1.5. .S ) ;.;.=.-.1.1.:.8.e.b.9.F.J.u.u.=.x.,.9.E u y M i q v D J W J K D J D J J D D y : 9 * & . % . # q t k 0 > g Y *.y.",
" .:.f.3.3.:.G ]  .S :.} 3.<.1.9.8.9.u.D.M.b.b.R 1.,.,.E q D J J D D F J R i P K ,.W E ,.A D 9 < p * # . % . u o e C h > 0 S T i.",
":.;.3.3.;.} k ] L  .| } ;.>.1.<.1.k.9.u.m.9.u.,.9.,.E D l } R -.D D D R D i D L j.1.E s.E h y , D q < q < < a.. L S.` 8 g $.&.y.",
" .5.3.3.:.} ) / C |  .} <.=.>.1.>.9.5.e.e.u.e.1.<.>.-.L S -.E k.D H J J i J i P >.m.F.B.s.E -.h v t D =.L q P , h Q.x.g S r.i.r.",
" .:.:.3. .^ C ] C  .-.| } ;.:.=.:.e.<.w.<.5.1.>.-.L L -.C -.Q 9.L u D G G K D E 9.D.K.D.9.m.F.$.1.g L -.L -.A S -.W.v.$.E P.m.y.",
" .3. .;. .) ] v ] C =.-.L } >.` =.;.5.<.<.<.;.=.-.L L L ,.=.Q =.:.x m D C R L >.u.M.P.K.M.Z.P.1.x.S G >.>.5.S S m.U.i.e.V C.C.V.",
"} ;. .;. .) ] k ] } } ] G |  .S | :.<.<.<.<.-.=.} L L S j.<.-.} -.G K E L =.k.>.9.u.Z.M.K.J.J.9.i.g B $.>.$.S L e.P.C.5.V <.t.t.",
" .;. .'  .` ] ] G ] ` } ` L %.} ;. .=.=.>. .} L } E } } =.<.=.} S C B E L =.-.e.x.7.b.i.D.D.1.b.x.%.S =.S S B B i.H.D.q.V <.w.V.",
"]  . . ... .] ] ] ] ] ] } ] L :...' } %.` S ^ L L G L L -.` -.L } G B A S -.E :.8.9.u.u.y.e.<.y.m.<.u.V <.` k C r.H.r.*.` w.w.r.",
"}  .o. . . .] ] ] } ] [ ) ) ] ` } ` ] } } ] ] S G k G G -.} } S ` S C S } -.=.>.1.8.0.e.w.9.5.<.e.w.8.` <.` C g *.y.q.I *.*.w.q.",
"C  .;. . .o.( ] v ] G ~ S ] ` _ } } ` =.] ] ) ) C G C j S ] L C S G L } $.` Y <.<.<.x.4.w.1.<.$.%.>.<.S >.B g j >.q.*.$.$.2.2.r.",
"]  . . .{ 3. .] ] ] k ] ^ ] ` ) ) ) ` ] | } ) S k k G k G C C G k G L ] ` =.;.<.<.<.4.<.w.9.e.&.<.Y ` S >.C j V ` %.%.%.%.2.r.q.",
") [  . . . .{ [ ^ ] f ^ ^ ] } ] ) ) ] ) _ ) ) ] S k / k C k B k j C C ] } ` -.;.<.1.<.<.e.<.e.&.<.$.C C S k C V ` _ _ %.%.*.r.2.",
"[  . . .o.+. .~ ] ] ~ / ] ) [ / ] ] ] ] ] C G x C k k k G j G ] k h f C ] S =.=.;.>.<.:.5.<.<.%.;.` j ) S f V ] ` _ S $.%.%.2.2.",
"[  . .o.o. . .( ] ~ / ) ^ ~ ] ) ^ ) C ) ] } k k k k j c k G k x k k s f S ;.` =.=.$.%.%.<.%.<.;.$.` ) ) V s k _ S ' ' %.%.*.2.*.",
"'  . . .o.o.[ ^ [ ~ ~ ^ / [ [ [ ) )  .S C ] S v k C j f k k k k k v 6 s G S ) ) ` | ' %.;.%.<.%.;.' ^ _ C d a B S %.' %.2.2.*.%.",
"(  .[  . .X.( ~ ~ ~ / [ ^ ) ) [ ) ) ) ^ S G ^ G g k c f k s f d k f 6 f k C } S } ` -.` =.;.%.%.%._ ) ) C f f k V _ _ %.*.*.%.$.",
"[ { [ ' o.o.^ ~ / ] ^ ] ( ( ^ ^ [ [ ] ) v ) k g h j z k h k f s f f s d s k S ) ] ` ` _  .%.%.%.' ` ) ) j / d k V _ ' %.*.2.%.' ",
"[  .[  . . .( ^ ~ ^ j ^ ^ ) ^ ^ ) ) ) C v ) v k s f k s f s s 6 s 6 z 6 k s j G ) S S ] _ ` ` ` ` _ j C j f k j j _ ' %.2.*.%.' ",
"] ) {  .' ( ~ ~ ) ^ ^ ~ ( ^ ~ ^ ) ) ^ C ] ] j j k f k f d v s ~ f 6 f 5 s k h G } S ` ] _ ) `  ._ ] k j j a k d j ^ ` ' 4.%.;.' ",
" . .[ [ [ ( ^ ^ +.^ ^ ~ ~ _ ^ ( ^ _ ) j k x k k v v k h k f d 6 j s 5 4 s s k j ] S S ) S ) ` ` ) C j d d a f f / ) ` ' %.;.' ' ",
"{ .. .] ) ) ^ ^ X.( ~ ( ^ ^ ^ ^ ^ ^ ~ C ~ k C h f k k g / / f f f 6 6 4 s s k ] ] ] G ] ) _ ) ) ) j d 6 s a f j j ) _ ' ;.%.%.' ",
"..+.[ [ ) [ ( ^ ^ [ ~ ( ( ~ ^ ^ ) ) ~ ^ ~ ^ k f k f f k ] ^ f z z f s , s k j x j k C ) ) _ ` ) C j s 3 a a 6 g f j _ ` %.%.%._ ",
"O.} [ ] ) ( ^ ^ ^ ^ ^ ^ ~ ) ^ ^ ( ^ ^ j / f j / f k f G { ) j f 5 f f 4 f f g k k G / ) C C _ S k j a 4 s f a f k j ( ' %.%.' _ ",
"+.{ [ [ ' ( ( ( ^ ~ ^ ( ^ ^ ~ ^ ^ ~ ~ _ ~ k j ~ d k k / [ j ~ f z 5 d s s k j j k k k j j C ) j k k 6 a 5 s d f j j _ _ ' ' %.' ",
"+.{ [ [ ' ( ( ^ ^ ^ ~ ) ~ _ ~ ~ j ^ ) ^ j ~ ~ ^ c k f O.[ k / ~ 6 z d 5 5 j v ~ k k k C ) V _ ) j v a s a j k v k j _ _ ' ' ' ' ",
"#.{ { [ [ ( ( ( ~ ~ ^ ~ ) ~ ^ _ ^ ^ ^ ^ ^ ^ ~ f j j ) @.[ ( ~ 6 5 ~ f f s f f f k j C ) ) ) ) C C j k d f f d j k k [ _ ' ' _ ' "
};
